<svg width="315" height="350" viewBox="0 0 315 350" fill="none" xmlns="http://www.w3.org/2000/svg">
    <path d="M314.16 212.289C316.188 142.782 220.326 97.0236 135.325 94.5619C50.3244 92.1002 8.3307 133.949 6.30342 203.456C4.27614 272.963 41.7808 330.45 126.927 332.912C211.928 335.519 312.133 281.796 314.16 212.289Z" fill="#E6F3FB"/>
    <path d="M265.072 230.97C256.094 230.97 248.854 223.729 248.854 214.751C248.854 205.773 256.094 198.533 265.072 198.533C274.05 198.533 281.29 205.773 281.29 214.751C281.29 223.729 274.05 230.97 265.072 230.97ZM265.072 200.416C257.252 200.416 250.881 206.787 250.881 214.607C250.881 222.426 257.252 228.798 265.072 228.798C272.891 228.798 279.263 222.426 279.263 214.607C279.263 206.787 272.891 200.416 265.072 200.416Z" fill="white"/>
    <path d="M171.962 171.02C143.29 170.73 86.8159 172.468 61.3301 214.317C35.5547 256.6 33.817 271.515 32.2241 301.634L280.276 312.205C280.276 312.205 295.046 260.51 273.181 225.467C253.487 193.899 224.816 171.454 171.962 171.02Z" fill="#1479F4"/>
    <path d="M278.683 313.219L32.0791 302.793C31.7895 302.793 31.6447 302.648 31.355 302.503C31.0654 302.359 31.0654 302.069 31.0654 301.779C32.6583 271.515 34.396 256.31 60.3162 214.027C73.3487 192.596 96.228 178.984 127.94 173.192C128.52 173.047 128.954 173.482 129.099 174.061C129.244 174.64 128.809 175.074 128.23 175.219C96.952 180.867 74.6519 194.189 61.909 215.041C36.7129 256.455 34.5408 271.66 33.0927 300.766L277.814 311.047C279.986 305.4 294.177 264.564 272.022 226.046C255.949 198.099 232.635 181.301 200.488 174.93C199.909 174.785 199.619 174.35 199.619 173.771C199.764 173.192 200.198 172.902 200.778 172.902C233.504 179.419 257.397 196.506 273.615 225.032C297.653 267.171 279.407 312.061 279.262 312.495C279.407 312.929 279.118 313.219 278.683 313.219Z" fill="#001466"/>
    <path d="M125.769 275.136C125.769 275.136 111.433 252.401 85.5129 251.822C59.4479 251.098 62.6336 264.131 62.6336 264.131C62.6336 264.131 51.7732 266.303 57.4206 278.032C57.4206 278.032 48.7322 281.942 52.9316 290.051C52.9316 290.051 145.752 361.874 240.455 346.815C240.455 346.815 278.394 343.774 284.476 289.616C284.476 289.616 285.345 277.742 244.22 284.403C202.95 291.354 160.957 294.685 125.769 275.136Z" fill="white"/>
    <path d="M213.811 350C174.134 350 136.919 337.112 110.564 325.093C75.8107 309.165 52.3521 291.064 52.2073 290.919C52.0625 290.775 51.9177 290.63 51.9177 290.63C50.6145 288.023 50.4697 285.562 51.0489 283.389C52.0625 280.493 54.5242 278.611 55.9723 277.742C54.3794 274.122 54.2346 270.936 55.5379 268.33C56.9859 265.434 60.0269 264.13 61.4749 263.551C61.3301 262.103 61.6197 259.641 63.647 257.035C67.1223 252.691 74.5074 250.663 85.3679 250.953C110.13 251.677 124.755 272.239 126.348 274.556C161.246 293.815 203.529 290.34 243.785 283.679C269.85 279.335 279.552 282.376 283.317 285.851C285.489 287.878 285.489 289.761 285.345 289.906C283.607 305.545 277.815 326.976 260.728 339.574C250.302 347.104 240.889 347.973 240.455 348.118C231.477 349.421 222.644 350 213.811 350ZM53.6554 289.471C55.8275 291.209 78.7068 308.151 111.578 323.211C143.29 337.836 191.655 353.62 240.165 345.945C240.31 345.945 249.578 345.077 259.569 337.836C276.222 325.528 281.724 304.821 283.317 289.761C283.317 289.761 283.317 288.602 281.869 287.154C279.118 284.693 270.574 281.362 244.22 285.706C203.385 292.512 160.812 295.988 125.189 276.294C125.045 276.149 124.9 276.004 124.9 276.004C124.755 275.715 110.419 253.849 85.3679 253.125C72.6249 252.835 67.4119 255.876 65.0951 258.483C62.7782 261.234 63.5022 264.275 63.5022 264.275C63.647 264.565 63.5022 264.854 63.3574 265.144C63.2126 265.434 63.0678 265.434 62.6333 265.578C62.6333 265.578 58.7236 266.447 57.2755 269.488C56.2619 271.66 56.4067 274.556 58.1444 278.032C58.2892 278.321 58.2892 278.466 58.1444 278.9C57.9996 279.19 57.8548 279.335 57.7099 279.48C57.7099 279.48 54.0898 281.217 53.0762 284.403C52.4969 285.706 52.7866 287.444 53.6554 289.471Z" fill="#001466"/>
    <path d="M32.2244 323.645C32.2244 323.645 18.0334 288.313 57.9998 281.507C98.111 274.556 149.372 267.316 211.204 268.474C211.204 268.474 231.332 266.592 244.799 284.548C244.799 284.548 215.404 292.802 173.555 312.061C117.66 337.836 46.9946 359.992 32.2244 323.645Z" fill="white"/>
    <path d="M69.1491 343.773C49.4555 343.773 36.7126 337.112 31.3548 324.079C31.0652 323.5 25.1282 308.585 32.2236 295.987C36.7126 288.023 45.2562 282.955 57.9991 280.638C99.4135 273.542 149.951 266.447 211.348 267.46C212.652 267.316 232.49 266.302 245.812 284.113C246.102 284.403 246.102 284.692 245.957 284.982C245.812 285.271 245.667 285.561 245.233 285.706C244.943 285.851 215.403 294.249 174.133 313.219C161.246 319.156 148.792 324.369 137.063 328.713C136.629 329.003 136.049 328.568 135.76 328.134C135.47 327.7 135.905 327.12 136.339 326.831C148.068 322.487 160.377 317.418 173.12 311.481C209.611 294.829 236.834 286.14 243.061 284.258C230.028 268.184 211.348 269.632 211.348 269.632H211.203C150.095 268.619 99.5583 275.714 58.2887 282.665C46.4146 284.692 38.1607 289.616 33.9613 296.856C27.4451 308.73 33.0925 323.211 33.2373 323.211C38.7399 336.822 52.9309 342.904 75.3757 341.601C75.955 341.601 76.3894 341.891 76.3894 342.47C76.3894 343.049 76.0998 343.483 75.5205 343.483C73.2037 343.773 71.0316 343.773 69.1491 343.773Z" fill="#001466"/>
    <path d="M80.1544 266.012C80.0096 266.012 80.0096 266.012 79.8648 266.012C70.4525 263.55 63.5018 265.288 63.5018 265.288C62.9226 265.433 62.4882 264.999 62.3433 264.564C62.1985 263.985 62.633 263.55 63.0674 263.406C63.357 263.261 70.5973 261.668 80.4441 264.13C81.0233 264.274 81.3129 264.854 81.1681 265.288C81.0233 265.723 80.7337 266.012 80.1544 266.012Z" fill="#001466"/>
    <path d="M57.9994 279.19C57.565 279.19 57.1306 278.901 57.1306 278.321C56.9858 277.742 57.4202 277.308 57.9994 277.163C58.1442 277.163 61.1852 276.729 66.9774 276.729C67.5566 276.729 67.991 277.163 67.991 277.742C67.991 278.321 67.5566 278.756 66.9774 278.756C61.33 278.756 58.289 279.19 58.289 279.19C58.1442 279.19 58.1442 279.19 57.9994 279.19Z" fill="#001466"/>
    <path d="M194.986 0.872718C178.333 1.30714 158.784 6.37534 131.706 20.7111C104.627 35.0469 105.206 34.3228 107.668 41.1287C110.13 47.9346 138.946 68.6418 138.946 68.6418L215.548 88.4802C215.548 88.4802 257.542 68.3522 250.591 53.582C243.785 39.1014 210.77 0.583107 194.986 0.872718Z" fill="white"/>
    <path d="M222.644 86.0192C222.354 86.0192 221.92 85.7296 221.775 85.5848C221.485 85.1504 221.63 84.5712 222.065 84.1368C232.056 78.6341 254.501 64.588 249.578 54.3068C246.102 46.7769 235.821 33.4548 225.25 22.4495C212.652 9.41702 201.647 2.03192 194.986 2.03192C194.841 2.03192 194.841 2.03192 194.696 2.03192C176.161 2.46634 156.323 8.83779 131.851 21.7255L127.941 23.8976C116.791 29.8346 111.143 32.8755 108.682 35.0476C106.654 36.7853 106.944 37.7989 108.102 40.5502L108.247 40.9847C110.275 46.1977 131.271 62.4159 139.236 68.0633C139.67 68.3529 139.815 68.9322 139.525 69.5114C139.236 69.9458 138.656 70.0906 138.077 69.801C136.919 68.9322 108.971 48.6594 106.365 41.7087L106.22 41.2743C103.758 34.6132 104.048 34.3236 127.072 22.1599L130.982 19.9878C155.599 6.95532 176.016 0.439062 194.696 0.00464456C204.543 -0.284967 218.879 13.0372 226.698 21.0015C237.414 32.0067 247.695 45.6184 251.315 53.438C256.528 64.8776 235.821 78.6341 222.933 85.8744C222.933 86.0192 222.789 86.0192 222.644 86.0192Z" fill="#001466"/>
    <path d="M143.58 135.977L139.091 176.233C139.091 176.233 155.454 188.251 172.686 187.672C189.918 187.093 204.833 177.391 204.833 177.391L200.923 138.293L143.58 135.977Z" fill="white"/>
    <path d="M171.527 188.832C154.73 188.832 139.236 177.682 138.656 177.103C138.367 176.813 138.222 176.523 138.367 176.234L141.697 147.273C141.842 146.693 142.277 146.404 142.711 146.404C143.29 146.549 143.58 146.983 143.58 147.417L140.394 175.799C143.145 177.682 157.771 187.094 172.831 186.805C187.746 186.37 201.213 178.695 203.964 176.958L200.054 138.439C200.054 137.86 200.344 137.426 200.923 137.426C201.502 137.426 201.937 137.715 201.937 138.295L205.846 177.392C205.846 177.682 205.702 178.116 205.412 178.261C204.833 178.551 189.918 188.253 172.831 188.832C172.251 188.832 171.817 188.832 171.527 188.832Z" fill="#001466"/>
    <path d="M210.19 115.993C207.874 137.424 197.158 155.959 173.555 155.959C152.558 155.959 134.457 137.714 134.457 115.993C134.457 86.5975 145.317 74.2891 175.727 74.2891C205.991 74.2891 212.652 94.5619 210.19 115.993Z" fill="white"/>
    <path d="M217.14 126.276C221.919 122.076 222.788 115.415 219.313 111.361C215.837 107.306 209.031 107.451 204.253 111.65C199.474 115.85 198.605 122.511 202.081 126.565C205.701 130.62 212.362 130.475 217.14 126.276Z" fill="white"/>
    <path d="M142.277 121.497C145.897 117.442 144.883 110.781 140.104 106.582C135.326 102.383 128.665 102.238 125.045 106.292C121.425 110.347 122.438 117.008 127.217 121.207C131.995 125.262 138.656 125.407 142.277 121.497Z" fill="white"/>
    <path d="M163.563 75.8819C163.563 75.8819 174.134 92.3898 199.909 92.3898C199.909 92.3898 197.158 103.829 210.48 110.925C210.48 110.925 228.725 99.0508 211.059 81.3845C211.059 81.3845 188.18 54.5955 141.552 73.4202C137.643 74.8683 123.886 80.2261 134.602 105.133C134.602 104.988 156.612 95.4307 163.563 75.8819Z" fill="#001466"/>
    <path d="M188.904 114.545C190.352 114.545 191.51 112.663 191.51 110.346C191.51 108.029 190.352 106.146 188.904 106.146C187.456 106.146 186.297 108.029 186.297 110.346C186.297 112.663 187.456 114.545 188.904 114.545Z" fill="#001466"/>
    <path d="M160.233 111.504C161.681 111.504 162.839 109.622 162.839 107.305C162.839 104.988 161.681 103.105 160.233 103.105C158.785 103.105 157.626 104.988 157.626 107.305C157.626 109.622 158.785 111.504 160.233 111.504Z" fill="#001466"/>
    <path d="M196.578 100.354C196.433 100.354 196.289 100.354 196.144 100.209C190.352 96.8788 186.442 96.734 186.297 96.734C185.718 96.734 185.428 96.2996 185.428 95.7204C185.428 95.1412 185.863 94.8516 186.442 94.8516C186.731 94.8516 190.931 94.9964 197.157 98.7613C197.592 99.0509 197.737 99.6302 197.447 100.209C197.302 100.209 196.868 100.354 196.578 100.354Z" fill="#001466"/>
    <path d="M152.848 95.4316C152.558 95.4316 151.979 95.142 151.979 94.8524C151.689 94.4179 151.979 93.8387 152.558 93.5491C159.364 90.7978 163.563 91.377 163.708 91.377C164.287 91.5218 164.577 91.9563 164.577 92.5355C164.432 93.1147 163.998 93.4043 163.418 93.4043C163.274 93.4043 159.509 92.9699 153.282 95.4316C153.137 95.4316 152.992 95.4316 152.848 95.4316Z" fill="#001466"/>
    <path d="M176.74 126.711H172.686C172.106 126.711 171.672 126.276 171.672 125.697C171.672 125.118 172.106 124.683 172.686 124.683H176.74C177.03 124.683 177.03 124.538 177.03 124.394V107.307C177.03 106.727 177.464 106.293 178.043 106.293C178.623 106.293 179.057 106.727 179.057 107.307V124.394C179.057 125.552 178.043 126.711 176.74 126.711Z" fill="#001466"/>
    <path d="M169.065 138.294C161.246 138.005 157.191 129.606 157.046 129.316C156.757 128.882 157.046 128.303 157.481 128.013C157.915 127.723 158.494 128.013 158.784 128.447C158.784 128.592 162.549 135.977 169.065 136.267C169.644 136.267 169.934 136.701 169.934 137.281C170.079 138.005 169.644 138.294 169.065 138.294Z" fill="#001466"/>
    <path d="M211.494 125.695C211.059 125.695 210.625 125.406 210.625 124.971C210.48 124.392 210.77 123.958 211.349 123.668C212.218 123.379 213.086 122.944 213.811 122.22C214.969 121.206 215.693 119.903 215.983 118.455C216.272 117.152 215.838 115.849 215.114 115.125C214.679 114.69 214.1 114.256 213.376 114.111C212.942 113.966 212.507 113.387 212.797 112.808C212.942 112.373 213.521 111.939 214.1 112.229C215.114 112.518 215.983 113.097 216.707 113.821C217.865 115.125 218.299 117.007 218.155 118.89C217.865 120.772 216.851 122.51 215.403 123.813C214.535 124.682 213.231 125.261 212.218 125.551C211.783 125.695 211.638 125.695 211.494 125.695Z" fill="#001466"/>
    <path d="M131.995 121.062C131.85 121.062 131.706 121.062 131.706 120.917C130.692 120.628 129.678 119.904 128.954 119.18C125.479 115.994 124.755 111.07 127.506 108.03C128.52 106.726 130.258 106.002 131.995 105.857C132.574 105.857 133.009 106.147 133.009 106.726C133.009 107.305 132.719 107.74 132.14 107.74C130.837 107.885 129.823 108.464 128.954 109.188C126.927 111.36 127.506 115.125 130.258 117.442C130.982 118.021 131.706 118.456 132.43 118.89C132.864 119.18 133.298 119.759 133.009 120.193C132.719 120.772 132.285 121.062 131.995 121.062Z" fill="#001466"/>
    <path d="M211.349 81.2402L217.575 53.7271C217.865 52.4238 217.286 51.1206 216.417 50.3966C209.177 44.6043 178.188 23.6075 140.539 48.0797C139.67 48.6589 139.091 49.5277 139.091 50.6862C138.801 54.4511 138.656 64.2979 139.959 76.4616C139.959 76.4616 158.35 72.5518 174.713 73.4207C191.51 74.2895 211.349 81.2402 211.349 81.2402Z" fill="white"/>
    <path d="M173.699 156.974C152.992 156.974 135.036 139.742 133.877 118.6C133.877 118.021 134.167 117.587 134.746 117.587C135.181 117.587 135.76 117.876 135.76 118.456C136.918 138.728 154.005 155.091 173.554 155.091C193.537 155.091 206.57 140.9 209.176 115.994C209.321 115.415 209.756 115.125 210.19 115.125C210.769 115.27 211.059 115.704 211.059 116.139C208.452 142.059 194.696 156.974 173.699 156.974Z" fill="#001466"/>
    <path d="M211.349 82.3986C211.204 82.3986 211.059 82.3986 211.059 82.3986C210.769 82.2538 191.221 75.4479 174.858 74.4342C158.784 73.5654 140.973 77.3304 140.249 77.4752C139.67 77.62 139.091 77.1856 139.091 76.6063C137.643 64.153 137.932 54.4511 138.222 50.6861C138.222 50.1069 138.656 49.8173 139.235 49.8173C139.815 49.8173 140.104 50.2517 140.104 50.8309C139.815 54.3063 139.67 63.7186 140.973 75.3031C145.172 74.4342 160.667 71.6829 175.002 72.407C189.338 73.2758 206.281 78.6336 210.625 79.9369L216.562 53.5822C216.851 52.7134 216.417 51.8446 215.693 51.2653C209.321 46.1971 186.587 30.8477 157.191 40.9841C156.757 41.2737 156.178 40.8393 155.888 40.4049C155.599 39.9705 156.033 39.3913 156.467 39.1017C186.877 28.5308 210.335 44.6043 216.851 49.6725C218.155 50.6861 218.734 52.4238 218.299 54.0166L212.073 81.5297C211.928 81.8193 211.783 81.9641 211.638 82.2538C211.638 82.2538 211.494 82.3986 211.349 82.3986Z" fill="#001466"/>
    <path fill-rule="evenodd" clip-rule="evenodd" d="M178.613 54.8379H175.655C175.353 54.8379 175.107 55.083 175.107 55.3857V58.3434C175.107 58.6461 175.353 58.8914 175.655 58.8914H178.613C178.916 58.8914 179.161 58.6461 179.161 58.3434V55.3857C179.161 55.083 178.916 54.8379 178.613 54.8379Z" fill="#FF9F00"/>
    <mask id="mask0" mask-type="alpha" maskUnits="userSpaceOnUse" x="167" y="47" width="21" height="20">
        <path fill-rule="evenodd" clip-rule="evenodd" d="M167 47H187.268V67H167V47Z" fill="white"/>
    </mask>
    <g mask="url(#mask0)">
        <path fill-rule="evenodd" clip-rule="evenodd" d="M167 51.0537V49.0269C167 47.9073 167.907 47 169.027 47H171.054H175.107H179.161H183.215H187.268V51.0537V55.1072V58.8926V59.1611V62.9463V64.9732C187.268 66.0925 186.361 67 185.241 67H183.215H179.161H175.107V62.9463H179.161H182.516C182.902 62.9463 183.215 62.6337 183.215 62.248V59.1611V58.8926V55.1072V51.0537H179.161H175.107H171.054H167Z" fill="#1479F4"/>
    </g>
    <mask id="mask1" mask-type="alpha" maskUnits="userSpaceOnUse" x="167" y="54" width="5" height="13">
        <path fill-rule="evenodd" clip-rule="evenodd" d="M167 54.8379H171.054V66.9988H167V54.8379Z" fill="white"/>
    </mask>
    <g mask="url(#mask1)">
        <path fill-rule="evenodd" clip-rule="evenodd" d="M167 62.9453V64.972C167 66.0915 167.907 66.9988 169.027 66.9988H171.054V64.972V62.9453V54.8379H167V62.9453Z" fill="#1479F4"/>
    </g>
    <path fill-rule="evenodd" clip-rule="evenodd" d="M135.286 236.107H132.698C132.433 236.107 132.219 236.322 132.219 236.587V239.175C132.219 239.44 132.433 239.654 132.698 239.654H135.286C135.551 239.654 135.766 239.44 135.766 239.175V236.587C135.766 236.322 135.551 236.107 135.286 236.107Z" fill="white"/>
    <mask id="mask2" mask-type="alpha" maskUnits="userSpaceOnUse" x="125" y="229" width="18" height="18">
        <path fill-rule="evenodd" clip-rule="evenodd" d="M125.125 229.25H142.86V246.75H125.125V229.25Z" fill="white"/>
    </mask>
    <g mask="url(#mask2)">
        <path fill-rule="evenodd" clip-rule="evenodd" d="M125.125 232.797V231.023C125.125 230.044 125.919 229.25 126.898 229.25H128.672H132.219H135.766H139.313H142.86V232.797V236.344V239.656V239.891V243.203V244.977C142.86 245.956 142.066 246.75 141.086 246.75H139.313H135.766H132.219V243.203H135.766H138.702C139.039 243.203 139.313 242.929 139.313 242.592V239.891V239.656V236.344V232.797H135.766H132.219H128.672H125.125Z" fill="white"/>
    </g>
    <mask id="mask3" mask-type="alpha" maskUnits="userSpaceOnUse" x="125" y="236" width="4" height="11">
        <path fill-rule="evenodd" clip-rule="evenodd" d="M125.125 236.107H128.672V246.748H125.125V236.107Z" fill="white"/>
    </mask>
    <g mask="url(#mask3)">
        <path fill-rule="evenodd" clip-rule="evenodd" d="M125.125 243.201V244.975C125.125 245.954 125.919 246.748 126.898 246.748H128.672V244.975V243.201V236.107H125.125V243.201Z" fill="white"/>
    </g>
    <path fill-rule="evenodd" clip-rule="evenodd" d="M151.433 237.839C151.983 237.839 152.402 237.709 152.692 237.448C152.981 237.187 153.125 236.806 153.125 236.303C153.125 235.811 152.985 235.427 152.706 235.151C152.426 234.877 152.002 234.739 151.433 234.739H149.386V237.839H151.433ZM147.452 243.001C147.385 242.935 147.352 242.854 147.352 242.759V233.502C147.352 233.398 147.383 233.313 147.445 233.246C147.506 233.18 147.589 233.146 147.693 233.146H151.504C152.651 233.146 153.552 233.417 154.206 233.957C154.86 234.497 155.187 235.284 155.187 236.318C155.187 237.341 154.86 238.116 154.206 238.642C153.552 239.169 152.651 239.432 151.504 239.432H149.414V242.759C149.414 242.863 149.381 242.946 149.314 243.008C149.248 243.07 149.163 243.1 149.058 243.1H147.693C147.598 243.1 147.518 243.067 147.452 243.001Z" fill="white"/>
    <path fill-rule="evenodd" clip-rule="evenodd" d="M161.43 237.725C161.999 237.725 162.425 237.6 162.71 237.348C162.994 237.097 163.136 236.73 163.136 236.246C163.136 235.763 162.994 235.391 162.71 235.13C162.425 234.87 161.999 234.739 161.43 234.739H159.454V237.725H161.43ZM157.548 243.001C157.481 242.935 157.448 242.854 157.448 242.759V233.502C157.448 233.398 157.479 233.313 157.541 233.246C157.602 233.18 157.685 233.146 157.79 233.146H161.473C162.638 233.146 163.551 233.417 164.21 233.957C164.868 234.497 165.198 235.265 165.198 236.261C165.198 236.953 165.032 237.533 164.7 238.003C164.368 238.472 163.904 238.811 163.307 239.019L165.369 242.645C165.397 242.702 165.411 242.754 165.411 242.802C165.411 242.887 165.38 242.958 165.319 243.015C165.257 243.072 165.188 243.1 165.113 243.1H163.804C163.653 243.1 163.534 243.065 163.449 242.994C163.364 242.922 163.288 242.83 163.221 242.716L161.401 239.346H159.453V242.759C159.453 242.854 159.42 242.935 159.354 243.001C159.287 243.067 159.202 243.1 159.098 243.1H157.79C157.695 243.1 157.614 243.067 157.548 243.001Z" fill="white"/>
    <path fill-rule="evenodd" clip-rule="evenodd" d="M167.842 243.001C167.776 242.935 167.743 242.854 167.743 242.759V233.502C167.743 233.398 167.773 233.313 167.835 233.246C167.897 233.18 167.98 233.146 168.084 233.146H174.355C174.459 233.146 174.544 233.18 174.611 233.246C174.677 233.313 174.71 233.398 174.71 233.502V234.455C174.71 234.559 174.677 234.642 174.611 234.704C174.544 234.765 174.459 234.796 174.355 234.796H169.691V237.284H174.042C174.146 237.284 174.231 237.318 174.298 237.384C174.364 237.45 174.398 237.536 174.398 237.64V238.536C174.398 238.64 174.364 238.723 174.298 238.785C174.231 238.846 174.146 238.877 174.042 238.877H169.691V241.451H174.469C174.573 241.451 174.658 241.482 174.725 241.543C174.791 241.605 174.824 241.688 174.824 241.792V242.759C174.824 242.863 174.791 242.946 174.725 243.008C174.658 243.07 174.573 243.1 174.469 243.1H168.084C167.989 243.1 167.909 243.067 167.842 243.001Z" fill="white"/>
    <path fill-rule="evenodd" clip-rule="evenodd" d="M181.393 237.839C181.943 237.839 182.363 237.709 182.652 237.448C182.941 237.187 183.085 236.806 183.085 236.303C183.085 235.811 182.946 235.427 182.666 235.151C182.386 234.877 181.962 234.739 181.393 234.739H179.346V237.839H181.393ZM177.412 243.001C177.346 242.935 177.312 242.854 177.312 242.759V233.502C177.312 233.398 177.343 233.313 177.405 233.246C177.466 233.18 177.549 233.146 177.654 233.146H181.465C182.611 233.146 183.512 233.417 184.166 233.957C184.82 234.497 185.148 235.284 185.148 236.318C185.148 237.341 184.82 238.116 184.166 238.642C183.512 239.169 182.611 239.432 181.465 239.432H179.374V242.759C179.374 242.863 179.341 242.946 179.275 243.008C179.208 243.07 179.123 243.1 179.019 243.1H177.654C177.559 243.1 177.478 243.067 177.412 243.001Z" fill="white"/>
    <path fill-rule="evenodd" clip-rule="evenodd" d="M186.313 242.998C186.247 242.932 186.214 242.851 186.214 242.756V241.32C186.214 241.225 186.247 241.145 186.313 241.078C186.38 241.012 186.46 240.979 186.555 240.979H187.991C188.086 240.979 188.167 241.012 188.233 241.078C188.299 241.145 188.333 241.225 188.333 241.32V242.756C188.333 242.851 188.302 242.932 188.24 242.998C188.178 243.064 188.095 243.097 187.991 243.097H186.555C186.46 243.097 186.38 243.064 186.313 242.998Z" fill="white"/>
    <path fill-rule="evenodd" clip-rule="evenodd" d="M192.457 242.702L189.414 233.573C189.404 233.544 189.399 233.502 189.399 233.445C189.399 233.36 189.428 233.289 189.485 233.232C189.542 233.175 189.613 233.146 189.698 233.146H190.963C191.087 233.146 191.186 233.18 191.262 233.246C191.338 233.313 191.39 233.384 191.419 233.459L193.793 240.74L196.182 233.459C196.201 233.384 196.248 233.313 196.324 233.246C196.4 233.18 196.5 233.146 196.623 233.146H197.903C197.979 233.146 198.047 233.175 198.109 233.232C198.17 233.289 198.201 233.36 198.201 233.445L198.173 233.573L195.144 242.702C195.049 242.968 194.864 243.1 194.59 243.1H193.011C192.727 243.1 192.542 242.968 192.457 242.702Z" fill="white"/>
    <path fill-rule="evenodd" clip-rule="evenodd" d="M200.519 243.001C200.453 242.935 200.419 242.854 200.419 242.759V233.502C200.419 233.398 200.45 233.313 200.512 233.246C200.573 233.18 200.656 233.146 200.761 233.146H201.87C202.05 233.146 202.187 233.227 202.282 233.388L206.349 239.702V233.502C206.349 233.398 206.38 233.313 206.442 233.246C206.503 233.18 206.586 233.146 206.69 233.146H207.913C208.017 233.146 208.103 233.18 208.169 233.246C208.235 233.313 208.269 233.398 208.269 233.502V242.745C208.269 242.849 208.235 242.935 208.169 243.001C208.103 243.067 208.022 243.1 207.928 243.1H206.804C206.614 243.1 206.472 243.02 206.378 242.859L202.325 236.687V242.759C202.325 242.854 202.294 242.935 202.233 243.001C202.171 243.067 202.088 243.1 201.984 243.1H200.761C200.666 243.1 200.585 243.067 200.519 243.001Z" fill="white"/>
    <path d="M104.482 117.008C104.337 117.008 104.192 117.008 104.048 116.863C103.613 116.574 103.324 115.995 103.613 115.56C118.239 83.8478 117.37 53.149 117.37 52.8593C117.37 52.2801 117.804 51.8457 118.239 51.8457C118.818 51.8457 119.107 52.2801 119.252 52.7145C119.252 53.0041 120.121 84.1374 105.206 116.429C105.206 116.863 104.916 117.008 104.482 117.008Z" fill="#001466"/>
    <path d="M104.916 123.235C105.351 127.144 105.206 134.385 99.4137 144.811L84.6436 140.756C84.6436 140.756 91.1598 124.972 98.9793 120.918C101.296 119.47 104.627 120.918 104.916 123.235Z" fill="white"/>
    <path d="M99.9931 146.114L84.6437 141.625C84.0645 141.48 83.7749 140.901 83.9197 140.321C84.0645 139.742 84.6437 139.453 85.223 139.597L98.9795 143.507C104.193 133.516 104.337 126.565 103.903 123.234C103.758 122.51 103.324 121.931 102.6 121.642C101.586 121.207 100.428 121.207 99.4139 121.642C95.3594 123.814 91.7392 129.461 89.4223 133.805C89.1327 134.24 88.5535 134.529 87.9743 134.095C87.5399 133.805 87.2502 133.226 87.6847 132.647C90.1464 128.158 94.0561 122.076 98.5451 119.759C99.9931 118.89 102.02 118.89 103.613 119.759C105.061 120.483 105.785 121.642 106.075 122.945C106.654 127.434 106.22 134.819 100.428 145.1L99.9931 146.114Z" fill="#001466"/>
    <path d="M99.2689 145.1C99.8482 143.217 97.0968 140.611 93.0423 139.452C88.9877 138.294 85.3676 138.728 84.7884 140.755C84.2091 142.783 86.9604 145.244 91.015 146.403C94.9248 147.561 98.6897 146.982 99.2689 145.1Z" fill="white"/>
    <path d="M95.0699 148.14C93.6218 148.14 91.8842 147.85 90.1465 147.271C87.1056 146.257 84.7887 144.519 83.9198 142.637C83.6302 141.768 83.6302 140.899 83.9198 140.03C85.0783 137.714 89.2776 137.134 93.9114 138.582C96.9524 139.596 99.2692 141.334 100.138 143.216C100.428 144.085 100.428 144.954 100.138 145.823C99.4141 147.271 97.5316 148.14 95.0699 148.14ZM89.1328 139.886C87.3952 139.886 86.0919 140.32 85.8023 141.044C85.8023 141.189 85.6575 141.334 85.8023 141.913C86.2367 142.927 87.9744 144.519 90.8705 145.388C94.7803 146.836 97.8212 146.112 98.4004 145.099C98.4004 144.954 98.5452 144.809 98.4004 144.23C97.966 143.216 96.2283 141.623 93.3322 140.755C91.5945 140.03 90.2913 139.886 89.1328 139.886Z" fill="#001466"/>
    <path d="M96.228 141.915C96.0832 141.915 95.9384 141.915 95.7936 141.77C95.3591 141.48 95.0695 140.901 95.504 140.322C99.1241 134.095 100.427 129.896 100.427 129.896C100.572 129.316 101.151 129.027 101.731 129.172C102.31 129.316 102.599 129.896 102.455 130.475C102.455 130.62 101.007 134.819 97.2416 141.191C96.952 141.625 96.5176 141.915 96.228 141.915Z" fill="#001466"/>
    <path d="M238.283 278.612C237.848 278.612 237.414 278.323 237.269 277.744L235.097 250.23C235.097 249.651 235.387 249.217 235.966 249.217C236.545 249.217 236.98 249.506 236.98 250.086L239.152 277.599C239.297 278.033 238.862 278.612 238.283 278.612Z" fill="#001466"/>
    <path d="M101.297 255.877C101.152 255.877 101.152 255.877 101.007 255.877C100.428 255.733 100.138 255.153 100.283 254.719L104.193 239.804C104.338 239.225 104.917 238.935 105.351 239.08C105.93 239.225 106.22 239.804 106.075 240.238L102.165 255.153C102.021 255.733 101.731 255.877 101.297 255.877Z" fill="#001466"/>
    <path d="M171.527 198.244C165.011 198.244 159.074 196.941 154.006 195.348C139.091 190.28 129.534 180.723 129.244 180.288C128.954 179.999 128.954 179.275 129.244 178.84C129.534 178.551 130.258 178.551 130.692 178.84C130.837 178.985 140.249 188.542 154.73 193.321C173.989 199.837 192.524 195.348 210.046 179.999C210.48 179.709 211.059 179.709 211.494 180.143C211.783 180.578 211.783 181.157 211.349 181.592C197.013 194.334 183.257 198.244 171.527 198.244Z" fill="white"/>
    <path d="M50.1798 178.115C49.7453 178.115 49.3109 177.826 49.3109 177.246L47.4285 163.2C47.2837 162.621 47.7181 162.187 48.2973 162.042C48.8765 161.897 49.3109 162.331 49.4557 162.911L51.3382 176.957C51.483 177.536 51.0486 177.97 50.4694 178.115C50.3246 178.115 50.1798 178.115 50.1798 178.115Z" fill="#FF9F00"/>
    <path d="M42.2153 172.034C41.7808 172.034 41.3464 171.744 41.3464 171.165C41.2016 170.585 41.636 170.151 42.2153 170.006L56.2614 168.124C56.8406 167.979 57.2751 168.413 57.4199 168.993C57.5647 169.572 57.1302 170.006 56.551 170.151L42.5049 172.034C42.3601 172.034 42.2153 172.034 42.2153 172.034Z" fill="#FF9F00"/>
    <path d="M275.643 133.515L281.869 134.384C284.621 134.818 286.358 131.198 284.041 129.46L279.118 125.551C278.249 124.971 277.959 123.958 278.104 122.944L278.973 116.717C279.408 113.966 275.787 112.228 274.05 114.545L270.14 119.469C269.561 120.338 268.547 120.627 267.533 120.482L261.307 119.614C258.556 119.179 256.818 122.799 259.135 124.537L264.058 128.447C264.927 129.026 265.217 130.04 265.072 131.053L264.203 137.28C263.769 140.031 267.389 141.769 269.126 139.452L273.036 134.529C273.615 133.805 274.629 133.37 275.643 133.515Z" fill="white"/>
    <path d="M266.954 141.625C266.519 141.625 265.94 141.48 265.506 141.335C263.913 140.611 263.044 139.018 263.334 137.281L264.203 131.054C264.347 130.475 264.058 129.751 263.479 129.461L258.555 125.551C257.107 124.538 256.673 122.655 257.397 121.062C258.121 119.47 259.714 118.601 261.451 118.89L267.678 119.759C268.257 119.904 268.981 119.614 269.271 119.035L273.18 114.112C274.194 112.664 276.077 112.229 277.669 112.953C279.262 113.677 280.131 115.27 279.842 117.008L278.973 123.235C278.828 123.814 279.118 124.538 279.697 124.827L284.62 128.737C286.068 129.751 286.503 131.633 285.779 133.226C285.055 134.819 283.462 135.688 281.724 135.398L275.497 134.529C274.918 134.385 274.194 134.674 273.905 135.253L269.995 140.177C269.126 141.046 267.967 141.625 266.954 141.625ZM260.872 120.628C260.003 120.628 259.424 121.207 259.279 121.642C258.99 122.221 258.99 123.09 259.714 123.814L264.637 127.724C265.651 128.592 266.23 129.896 266.085 131.199L265.216 137.425C265.071 138.439 265.651 139.018 266.23 139.308C266.809 139.598 267.678 139.598 268.402 138.874L272.312 133.95C273.18 132.937 274.484 132.357 275.787 132.502L282.014 133.371C282.882 133.516 283.606 132.937 283.896 132.357C284.186 131.778 284.186 130.909 283.462 130.185L278.538 126.275C277.525 125.407 276.945 124.103 277.09 122.8L277.959 116.429C278.104 115.415 277.525 114.836 276.945 114.546C276.366 114.257 275.497 114.257 274.773 114.981L270.864 119.904C269.995 120.918 268.692 121.497 267.388 121.352L261.162 120.483C261.017 120.628 261.017 120.628 260.872 120.628Z" fill="#001466"/>
    <path d="M22.377 241.975L27.59 238.5C29.9069 236.907 28.6037 233.287 25.8524 233.432L19.4809 233.866C18.4673 234.011 17.4536 233.577 16.8744 232.708L13.3991 227.495C11.8062 225.178 8.18607 226.481 8.33088 229.233L8.7653 235.604C8.9101 236.618 8.47568 237.631 7.60685 238.211L2.39384 241.686C0.0769515 243.279 1.3802 246.899 4.13151 246.754L10.503 246.32C11.5166 246.175 12.5302 246.609 13.1095 247.478L16.5848 252.691C18.1777 255.008 21.7978 253.705 21.653 250.953L21.2186 244.582C20.929 243.568 21.3634 242.555 22.377 241.975Z" fill="white"/>
    <path d="M18.7571 254.864C17.4538 254.864 16.4402 254.285 15.5714 253.271L12.096 248.058C11.8064 247.479 11.2272 247.189 10.5032 247.189L4.13172 247.624C2.39405 247.768 0.801183 246.755 0.22196 245.017C-0.357263 243.424 0.22196 241.687 1.67002 240.673L6.88302 237.198C7.46225 236.908 7.75186 236.329 7.75186 235.605L7.31744 229.233C7.17263 227.496 8.18627 225.903 9.92394 225.324C11.5168 224.744 13.2545 225.324 14.2681 226.772L17.7434 231.985C18.0331 232.564 18.6123 232.853 19.3363 232.853L25.7078 232.419C27.4454 232.274 29.0383 233.288 29.6175 235.026C30.1967 236.618 29.6175 238.356 28.1695 239.37L22.9565 242.845C22.3772 243.135 22.0876 243.714 22.0876 244.438L22.522 250.809C22.6668 252.547 21.6532 254.14 19.9155 254.719C19.4811 254.719 19.1915 254.864 18.7571 254.864ZM10.648 245.017C11.9512 245.017 13.1097 245.596 13.8337 246.61L17.309 251.823C17.8883 252.692 18.7571 252.692 19.4811 252.547C20.0603 252.257 20.7844 251.678 20.6396 250.809L20.2051 244.438C20.0603 242.99 20.7844 241.687 21.798 241.107L27.011 237.632C27.8799 237.053 27.8799 236.184 27.735 235.46C27.4454 234.881 26.8662 234.157 25.9974 234.301L19.6259 234.736C18.1779 234.881 16.8746 234.157 16.2954 233.143L12.8201 227.93C12.2408 227.061 11.372 227.061 10.648 227.206C10.0687 227.496 9.34472 228.075 9.48953 228.944L9.92394 235.315C10.0687 236.763 9.34472 238.066 8.33108 238.646L3.11807 242.121C2.24924 242.7 2.24924 243.569 2.39405 244.293C2.68366 244.872 3.26288 245.596 4.13172 245.452L10.5032 245.017C10.5032 245.162 10.5032 245.017 10.648 245.017Z" fill="#001466"/>
</svg>
