<svg width="50" height="50" viewBox="0 0 50 50" fill="none" xmlns="http://www.w3.org/2000/svg">
    <path d="M19.1454 36.8164V40.2344C19.1454 43.3199 16.7604 45.8484 13.7334 46.077C13.4804 46.0961 13.2861 46.3092 13.2861 46.5629V49.5117C13.2861 49.7813 13.5048 50 13.7744 50H36.2256C36.4952 50 36.7139 49.7813 36.7139 49.5117V46.5629C36.7139 46.3092 36.5195 46.096 36.2666 46.077C33.2396 45.8484 30.8546 43.3199 30.8546 40.2344V36.8164H19.1454Z" fill="#DFE7F4"/>
    <path d="M36.7139 46.5625V49.5117C36.7139 49.7812 36.4951 50 36.2256 50H25V36.8164H30.8545V40.2344C30.8545 43.3203 33.2393 45.8486 36.2666 46.0771C36.5195 46.0957 36.7139 46.3096 36.7139 46.5625Z" fill="#C7CFE1"/>
    <path d="M48.5352 0H1.46484C0.655859 0 0 0.655859 0 1.46484V36.8164C0 37.6254 0.655859 38.2812 1.46484 38.2812H48.5352C49.3441 38.2812 50 37.6254 50 36.8164V1.46484C50 0.655859 49.3441 0 48.5352 0Z" fill="#F0F7FF"/>
    <path d="M50 1.46484V36.8164C50 37.625 49.3438 38.2812 48.5352 38.2812H25V0H48.5352C49.3438 0 50 0.65625 50 1.46484Z" fill="#DFE7F4"/>
    <path d="M2.92969 2.92969H47.0703V26.5328H2.92969V2.92969Z" fill="#84BCFF"/>
    <path d="M25 2.92969H47.0703V26.5332H25V2.92969Z" fill="#5CB1FF"/>
    <path d="M25 33.8721C25.809 33.8721 26.4648 33.2162 26.4648 32.4072C26.4648 31.5982 25.809 30.9424 25 30.9424C24.191 30.9424 23.5352 31.5982 23.5352 32.4072C23.5352 33.2162 24.191 33.8721 25 33.8721Z" fill="#DFE7F4"/>
    <path d="M26.4648 32.4072C26.4648 33.2158 25.8086 33.8721 25 33.8721V30.9424C25.8086 30.9424 26.4648 31.5977 26.4648 32.4072Z" fill="#C7CFE1"/>
    <path d="M39.6533 6.05078H10.3467C9.5377 6.05078 8.88184 6.70664 8.88184 7.51562V16.3047C8.88184 17.1137 9.5377 17.7695 10.3467 17.7695H39.6533C40.4623 17.7695 41.1182 17.1137 41.1182 16.3047V7.51562C41.1182 6.70664 40.4623 6.05078 39.6533 6.05078Z" fill="#F6F9F9"/>
    <path d="M41.1182 7.51562V16.3047C41.1182 17.1133 40.4619 17.7695 39.6533 17.7695H25V6.05078H39.6533C40.4619 6.05078 41.1182 6.70703 41.1182 7.51562Z" fill="#E2DFF4"/>
    <path d="M43.5287 16.9983L36.1579 10.5894C35.2143 9.76881 33.7319 10.437 33.7319 11.6948V21.5116C33.7319 22.5834 34.8461 23.2877 35.8115 22.8412L38.2215 21.7269L38.6369 22.6254C38.9747 23.356 39.8435 23.6816 40.5813 23.3403C41.3156 23.0007 41.6357 22.1302 41.2961 21.396L40.8807 20.4973L43.1822 19.4332C44.1457 18.9877 44.3296 17.6945 43.5287 16.9983Z" fill="#FFF3E1"/>
    <path d="M29.3945 20.6865H10.3564C9.54746 20.6865 8.8916 21.3424 8.8916 22.1514C8.8916 22.9604 9.54746 23.6162 10.3564 23.6162H29.3945C30.2035 23.6162 30.8594 22.9604 30.8594 22.1514C30.8594 21.3424 30.2035 20.6865 29.3945 20.6865Z" fill="#F6F9F9"/>
    <path d="M30.8594 22.1504C30.8594 22.96 30.2031 23.6152 29.3945 23.6152H25V20.6855H29.3945C30.2031 20.6855 30.8594 21.3418 30.8594 22.1504Z" fill="#E2DFF4"/>
</svg>
