<svg width="50" height="50" viewBox="0 0 50 50" fill="none" xmlns="http://www.w3.org/2000/svg">
    <path d="M33.9246 47.5819L33.8548 47.5005C32.238 45.6142 31.3476 43.207 31.3476 40.7227C31.3476 39.9137 30.6917 39.2578 29.8827 39.2578H20.1171C19.3081 39.2578 18.6522 39.9137 18.6522 40.7227C18.6522 43.207 17.7618 45.6142 16.1449 47.5005L16.0752 47.5818C15.8432 47.8525 15.7228 48.1919 15.7227 48.5351H34.2771C34.2771 48.192 34.1566 47.8526 33.9246 47.5819Z" fill="#DFE7F4"/>
    <path d="M33.9247 47.5819L33.8549 47.5005C32.2381 45.6142 31.3477 43.207 31.3477 40.7227C31.3477 39.9137 30.6918 39.2578 29.8828 39.2578H25V48.5352H34.2772C34.2771 48.192 34.1567 47.8526 33.9247 47.5819Z" fill="#B4C4DD"/>
    <path d="M35.7422 50H14.2578C13.4488 50 12.793 49.3441 12.793 48.5352C12.793 47.7262 13.4488 47.0703 14.2578 47.0703H35.7422C36.5512 47.0703 37.207 47.7262 37.207 48.5352C37.207 49.3441 36.5512 50 35.7422 50Z" fill="#5C99FF"/>
    <path d="M35.7422 50C36.5512 50 37.207 49.3441 37.207 48.5352C37.207 47.7262 36.5512 47.0703 35.7422 47.0703H25V50H35.7422Z" fill="#1F82FA"/>
    <path d="M45.6055 42.1875H4.39453C1.97139 42.1875 0 40.2161 0 37.793V10.4492C0 8.02607 1.97139 6.05469 4.39453 6.05469H45.6055C48.0286 6.05469 50 8.02607 50 10.4492V37.793C50 40.2161 48.0286 42.1875 45.6055 42.1875Z" fill="#F0F7FF"/>
    <path d="M45.6055 6.05469H25V42.1875H45.6055C48.0286 42.1875 50 40.2161 50 37.793V10.4492C50 8.02607 48.0286 6.05469 45.6055 6.05469Z" fill="#DFE7F4"/>
    <path d="M47.0703 10.4492C47.0703 9.6415 46.4132 8.98438 45.6055 8.98438H4.39453C3.58682 8.98438 2.92969 9.6415 2.92969 10.4492V33.3984H47.0703V10.4492Z" fill="#ACD2FF"/>
    <path d="M45.6055 8.98438H25V33.3984H47.0703V10.4492C47.0703 9.6415 46.4132 8.98438 45.6055 8.98438Z" fill="#80B9FF"/>
    <path d="M25 30.4688C24.191 30.4688 23.5352 29.8129 23.5352 29.0039V25.0977C23.5352 24.2887 24.191 23.6328 25 23.6328C25.809 23.6328 26.4648 24.2887 26.4648 25.0977V29.0039C26.4648 29.8129 25.809 30.4688 25 30.4688Z" fill="#5C99FF"/>
    <path d="M25 23.6328V30.4688C25.809 30.4688 26.4648 29.8129 26.4648 29.0039V25.0977C26.4648 24.2887 25.809 23.6328 25 23.6328Z" fill="#5C99FF"/>
    <path d="M8.88672 1.46484V25.0977C8.88672 25.9066 9.54258 26.5625 10.3516 26.5625H39.6484C40.4574 26.5625 41.1133 25.9066 41.1133 25.0977V1.46484H8.88672Z" fill="#F6F9F9"/>
    <path d="M25 1.46484V26.5625H39.6484C40.4574 26.5625 41.1133 25.9066 41.1133 25.0977V1.46484H25Z" fill="#DFE7F4"/>
    <path d="M42.5781 2.92969H7.42188C6.61289 2.92969 5.95703 2.27383 5.95703 1.46484C5.95703 0.655859 6.61289 0 7.42188 0H42.5781C43.3871 0 44.043 0.655859 44.043 1.46484C44.043 2.27383 43.3871 2.92969 42.5781 2.92969Z" fill="#CDE0FF"/>
    <path d="M42.5781 0H25V2.92969H42.5781C43.3871 2.92969 44.043 2.27383 44.043 1.46484C44.043 0.655859 43.3871 0 42.5781 0Z" fill="#A4C1F0"/>
    <path d="M33.7891 8.98438H27.9297C27.1207 8.98438 26.4648 8.32852 26.4648 7.51953C26.4648 6.71055 27.1207 6.05469 27.9297 6.05469H33.7891C34.598 6.05469 35.2539 6.71055 35.2539 7.51953C35.2539 8.32852 34.598 8.98438 33.7891 8.98438Z" fill="#BEBCDD"/>
    <path d="M33.7891 14.8438H27.9297C27.1207 14.8438 26.4648 14.1879 26.4648 13.3789C26.4648 12.5699 27.1207 11.9141 27.9297 11.9141H33.7891C34.598 11.9141 35.2539 12.5699 35.2539 13.3789C35.2539 14.1879 34.598 14.8438 33.7891 14.8438Z" fill="#BEBCDD"/>
    <path d="M33.7891 20.7031H16.2109C15.402 20.7031 14.7461 20.0473 14.7461 19.2383C14.7461 18.4293 15.402 17.7734 16.2109 17.7734H33.7891C34.598 17.7734 35.2539 18.4293 35.2539 19.2383C35.2539 20.0473 34.598 20.7031 33.7891 20.7031Z" fill="#D5D3EA"/>
    <path d="M22.0703 14.8438H16.2109C15.402 14.8438 14.7461 14.1879 14.7461 13.3789V7.51953C14.7461 6.71055 15.402 6.05469 16.2109 6.05469H22.0703C22.8793 6.05469 23.5352 6.71055 23.5352 7.51953V13.3789C23.5352 14.1879 22.8793 14.8438 22.0703 14.8438Z" fill="#5C99FF"/>
    <path d="M33.7891 20.7031C34.598 20.7031 35.2539 20.0473 35.2539 19.2383C35.2539 18.4293 34.598 17.7734 33.7891 17.7734H25V20.7031H33.7891Z" fill="#BEBCDD"/>
</svg>
