<svg width="60" height="60" viewBox="0 0 60 60" fill="none" xmlns="http://www.w3.org/2000/svg">
    <path d="M30 60C46.5685 60 60 46.5685 60 30C60 13.4315 46.5685 0 30 0C13.4315 0 0 13.4315 0 30C0 46.5685 13.4315 60 30 60Z" fill="#E5F1FF"/>
    <path d="M46.4844 25.2422C45.8366 25.2422 45.3125 25.7663 45.3125 26.4141V41.6484C45.3125 42.2962 45.8366 42.8203 46.4844 42.8203C47.1321 42.8203 47.6562 42.2962 47.6562 41.6484V26.4141C47.6562 25.7663 47.1321 25.2422 46.4844 25.2422ZM40.0434 27.7942C39.7275 27.5756 39.3201 27.5241 38.963 27.6603L30 31.0215L21.037 27.6604C20.673 27.5242 20.2748 27.5757 19.9566 27.7943C19.6408 28.0141 19.4531 28.3734 19.4531 28.7579V39.3048C19.4531 39.7248 19.6774 40.1127 20.0437 40.3221C23.113 42.0799 26.5577 42.9588 30 42.9588C33.4423 42.9588 36.887 42.0799 39.9563 40.3221C40.3226 40.1126 40.5469 39.7248 40.5469 39.3048V28.7579C40.5469 28.3733 40.3592 28.014 40.0434 27.7942Z" fill="#BEE3FF"/>
    <path d="M30 33.4448C29.8604 33.4448 29.7208 33.4196 29.588 33.3704L10.7599 26.3391C10.3021 26.1675 10 25.7303 10 25.2416C10 24.753 10.3021 24.3158 10.7599 24.1441L29.588 17.1129C29.8535 17.0145 30.1465 17.0145 30.412 17.1129L49.2402 24.1441C49.6979 24.3158 50.0001 24.753 50.0001 25.2416C50.0001 25.7303 49.698 26.1675 49.2402 26.3391L30.412 33.3704C30.2792 33.4196 30.1396 33.4448 30 33.4448Z" fill="url(#paint0_linear)"/>
    <defs>
        <linearGradient id="paint0_linear" x1="30" y1="33.4448" x2="30" y2="17.0391" gradientUnits="userSpaceOnUse">
            <stop stop-color="#5558FF"/>
            <stop offset="1" stop-color="#00C0FF"/>
        </linearGradient>
    </defs>
</svg>
