<svg width="20" height="18" viewBox="0 0 20 18" fill="none" xmlns="http://www.w3.org/2000/svg">
    <path d="M18.5036 0.355469H1.49641C0.671289 0.355469 0 1.02676 0 1.85187V16.1487C0 16.9739 0.671289 17.6452 1.49641 17.6452H18.5036C19.3287 17.6452 20 16.9739 20 16.1487V1.85187C20 1.02676 19.3287 0.355469 18.5036 0.355469ZM1.49641 1.13672H18.5036C18.8979 1.13672 19.2188 1.45754 19.2188 1.85187V3.21906H0.78125V1.85187C0.78125 1.45754 1.10207 1.13672 1.49641 1.13672ZM18.5036 16.8639H1.49641C1.10207 16.8639 0.78125 16.5431 0.78125 16.1487V4.00031H19.2188V16.1487C19.2188 16.5431 18.8979 16.8639 18.5036 16.8639ZM3.62781 2.17789C3.62781 1.94328 3.81801 1.75309 4.05262 1.75309C4.28723 1.75309 4.47742 1.94328 4.47742 2.17789C4.47742 2.4125 4.28723 2.6027 4.05262 2.6027C3.81801 2.6027 3.62781 2.4125 3.62781 2.17789ZM5.31238 2.17789C5.31238 1.94328 5.50258 1.75309 5.73719 1.75309C5.9718 1.75309 6.16199 1.94328 6.16199 2.17789C6.16199 2.4125 5.9718 2.6027 5.73719 2.6027C5.50258 2.6027 5.31238 2.4125 5.31238 2.17789ZM1.94328 2.17789C1.94328 1.94328 2.13348 1.75309 2.36809 1.75309C2.6027 1.75309 2.79289 1.94328 2.79289 2.17789C2.79289 2.4125 2.6027 2.6027 2.36809 2.6027C2.13348 2.6027 1.94328 2.4125 1.94328 2.17789ZM15.4141 8.67754L10.177 6.01535C10.0658 5.95883 9.93426 5.95883 9.82301 6.01535L4.58594 8.67754C4.45488 8.74414 4.3723 8.87871 4.3723 9.02574C4.3723 9.17277 4.45484 9.30734 4.58594 9.37395L5.88152 10.0325V13.2361C5.88152 13.3887 5.97035 13.5273 6.10902 13.5911L9.83691 15.3041C9.88871 15.3279 9.94438 15.3398 10 15.3398C10.0557 15.3398 10.1114 15.3279 10.1632 15.3041L13.8911 13.5911C14.0298 13.5273 14.1186 13.3887 14.1186 13.2361V10.0474L14.8466 9.68012V11.7033C14.8466 11.919 15.0215 12.0939 15.2372 12.0939C15.4529 12.0939 15.6278 11.919 15.6278 11.7033V9.0257C15.6277 8.87875 15.5452 8.74414 15.4141 8.67754ZM13.3373 12.9857L10 14.5193L6.66273 12.9857V10.4296L9.82297 12.0361C9.93383 12.0924 10.0648 12.0926 10.1759 12.0366L13.3373 10.4416V12.9857H13.3373ZM10.0007 11.2501L5.62496 9.02578L10 6.80176L14.3921 9.03438L10.0007 11.2501Z" fill="#4F4F4F"/>
</svg>
