<svg width="16" height="17" viewBox="0 0 16 17" fill="none" xmlns="http://www.w3.org/2000/svg">
<path d="M2 9.16667V3.83333C2 3.47971 2.14048 3.14057 2.39052 2.89052C2.64057 2.64048 2.97971 2.5 3.33333 2.5H12.6667C13.0203 2.5 13.3594 2.64048 13.6095 2.89052C13.8595 3.14057 14 3.47971 14 3.83333V9.16667" stroke="#222B45" stroke-miterlimit="10" stroke-linecap="round" stroke-linejoin="round"/>
<path d="M15.3337 11.834C15.3337 12.5412 15.0527 13.2195 14.5526 13.7196C14.0525 14.2197 13.3742 14.5007 12.667 14.5007H3.33366C2.62641 14.5007 1.94814 14.2197 1.44804 13.7196C0.947944 13.2195 0.666992 12.5412 0.666992 11.834H15.3337Z" stroke="#222B45" stroke-miterlimit="10" stroke-linecap="round" stroke-linejoin="round"/>
<path d="M6.66699 5.16602V9.16602L10.0003 7.16602L6.66699 5.16602Z" fill="#222B45"/>
</svg>
