<svg width="17" height="17" viewBox="0 0 17 17" fill="none" xmlns="http://www.w3.org/2000/svg">
<path d="M2.5 9.16667V3.83333C2.5 3.47971 2.64048 3.14057 2.89052 2.89052C3.14057 2.64048 3.47971 2.5 3.83333 2.5H13.1667C13.5203 2.5 13.8594 2.64048 14.1095 2.89052C14.3595 3.14057 14.5 3.47971 14.5 3.83333V9.16667" stroke="#222B45" stroke-miterlimit="10" stroke-linecap="round" stroke-linejoin="round"/>
<path d="M15.8337 11.834C15.8337 12.5412 15.5527 13.2195 15.0526 13.7196C14.5525 14.2197 13.8742 14.5007 13.167 14.5007H3.83366C3.12641 14.5007 2.44814 14.2197 1.94804 13.7196C1.44794 13.2195 1.16699 12.5412 1.16699 11.834H15.8337Z" stroke="#222B45" stroke-miterlimit="10" stroke-linecap="round" stroke-linejoin="round"/>
<path d="M6 7L8.5 9.5L12 6" stroke="#222B45" stroke-linecap="round" stroke-linejoin="round"/>
</svg>
