<svg width="16" height="16" viewBox="0 0 16 16" fill="none" xmlns="http://www.w3.org/2000/svg">
    <path d="M1.5 7.265V4.5C1.5 2.291 3.291 0.5 5.5 0.5H10.5C12.709 0.5 14.5 2.291 14.5 4.5V7.265" stroke="#1479F4" stroke-miterlimit="10" stroke-linecap="round" stroke-linejoin="round"/>
    <path d="M4.5 12.5H3.5C1.843 12.5 0.5 11.157 0.5 9.5C0.5 7.843 1.843 6.5 3.5 6.5H4.5V12.5Z" stroke="#1479F4" stroke-miterlimit="10" stroke-linecap="round" stroke-linejoin="round"/>
    <path d="M11.5 12.5H12.5C14.157 12.5 15.5 11.157 15.5 9.5C15.5 7.843 14.157 6.5 12.5 6.5H11.5V12.5Z" stroke="#1479F4" stroke-miterlimit="10" stroke-linecap="round" stroke-linejoin="round"/>
    <path d="M9.5 15.5H4.5C3.395 15.5 2.5 14.605 2.5 13.5V12.5" stroke="#1479F4" stroke-miterlimit="10" stroke-linecap="round" stroke-linejoin="round"/>
</svg>
