<?xml version="1.0" encoding="utf-8"?>
<!-- Generator: Adobe Illustrator 25.0.0, SVG Export Plug-In . SVG Version: 6.00 Build 0)  -->
<svg version="1.1" id="Layer_1" xmlns="http://www.w3.org/2000/svg" xmlns:xlink="http://www.w3.org/1999/xlink" x="0px" y="0px"
	 viewBox="0 0 5 4" style="enable-background:new 0 0 5 4;" xml:space="preserve">
<style type="text/css">
	.st0{fill-rule:evenodd;clip-rule:evenodd;fill:#157EFB;}
</style>
<path class="st0" d="M5,1.2H4.3v0.2H5V1.2z M4.6,2.3L4.2,1.8L4,1.9l0.4,0.5L4.6,2.3z M3.5,2.6L3.6,2l-0.2,0L3.3,2.6L3.5,2.6z M3.3,0
	l0.2,0.6l0.2,0L3.5,0L3.3,0z M4.4,0.2L4,0.7l0.1,0.1l0.4-0.5L4.4,0.2z M2.9,2.2c0.1,0,0.2-0.1,0.2-0.2c0-0.1-0.1-0.2-0.2-0.2H2.6
	H2.2V1.6h0.4h1.2C3.9,1.6,4,1.5,4,1.3c0-0.1-0.1-0.2-0.3-0.2H2c0.4-0.3,0.8-0.8,0.6-1C2.4-0.1,1.9,0.4,0.8,1C0.3,1.3,0,1.7,0,2.3
	C0,3,0.6,3.6,1.3,3.6h0.5h0.8c0.1,0,0.3-0.1,0.3-0.2c0-0.1-0.1-0.2-0.3-0.2H2.2h0V2.9h0.4h0.2C2.9,2.9,3,2.8,3,2.7
	c0-0.1-0.1-0.2-0.2-0.2H2.6H2.3V2.2h0.2H2.9z"/>
</svg>
