<svg width="78" height="77" viewBox="0 0 78 77" fill="none" xmlns="http://www.w3.org/2000/svg">
    <path d="M0.570768 1.7947C0.804588 1.40377 1.18073 0.790733 2.01435 0.382039C2.62431 0.0799618 3.20378 0.0177693 3.54943 8.27915e-08C3.88491 0.0177694 4.47454 0.0799619 5.0845 0.38204C5.89779 0.790733 6.2841 1.40377 6.51792 1.7947C7.15838 2.85197 7.11772 3.88259 7.04656 4.40678L3.53926 4.40678L0.0319665 4.40678C-0.0290299 3.88259 -0.0696941 2.85197 0.570768 1.7947Z" fill="#EE5151"/>
    <path d="M45.3604 61.2552L7.53601 76.1412C6.8799 76.3994 6.16979 75.9158 6.16979 75.2107L6.16979 57.2891L45.3604 61.2552Z" fill="#EE5151"/>
    <path d="M6.20626 4.60162L6.20626 60.8136L76.8133 74.2487C77.4294 74.366 78.0002 73.8936 78.0002 73.2664L78.0002 11.8983L77.9911 7.05085C78.0002 4.40678 78.0002 2.84817 77.4961 1.87404C77.2853 1.46583 76.937 0.825691 76.1946 0.39893C75.6447 0.0834983 75.1132 0.0185565 74.8107 1.6727e-06L3.09961 2.60501e-05C3.41123 0.0185809 3.87831 0.0835228 4.42822 0.398955C5.17976 0.825715 5.51887 1.46586 5.72967 1.87406C6.29791 2.97807 6.27042 4.05425 6.20626 4.60162Z" fill="#FF715B"/>
</svg>
