<svg width="122" height="138" viewBox="0 0 122 138" fill="none" xmlns="http://www.w3.org/2000/svg">
    <path d="M61 3.2793C80.074 3.2793 98.6336 5.48066 116.439 9.64258C117.742 16.7421 118.422 24.059 118.422 31.5353C118.422 74.9734 95.454 113.047 61 134.274C26.546 113.047 3.57812 74.9731 3.57812 31.5353C3.57812 24.0593 4.2584 16.7421 5.56064 9.64258C23.3664 5.48066 41.926 3.2793 61 3.2793Z" fill="#FF9100"/>
    <path d="M116.439 9.64258C117.741 16.7421 118.422 24.059 118.422 31.5353C118.422 66.0209 103.945 97.1251 80.7382 119.103C64.034 101.586 53.3828 75.047 53.3828 45.3394C53.3828 30.2456 56.1323 15.9698 61.0284 3.2793C80.0922 3.28164 98.6424 5.48271 116.439 9.64258Z" fill="#FFB52D"/>
    <path d="M119.321 9.11406L118.974 7.22676L117.106 6.78994C98.8237 2.51641 79.9472 0.349609 61 0.349609C42.0531 0.349609 23.1763 2.51641 4.89385 6.78965L3.02529 7.22646L2.679 9.11377C1.33164 16.46 0.648438 24.0036 0.648438 31.5353C0.648438 53.004 6.24209 74.1496 16.8247 92.6863C27.0868 110.662 41.8311 125.905 59.4634 136.769L61.0003 137.716L62.5369 136.769C80.1695 125.905 94.9135 110.662 105.176 92.6863C115.758 74.1496 121.352 53.004 121.352 31.5353C121.352 24.0033 120.668 16.4597 119.321 9.11406ZM61 130.817C26.8439 109.063 6.50781 72.0845 6.50781 31.5353C6.50781 25.0026 7.04687 18.4618 8.11152 12.0631C25.3688 8.17803 43.1518 6.20898 61 6.20898C78.8482 6.20898 96.6314 8.17803 113.888 12.0631C114.953 18.4615 115.492 25.0023 115.492 31.5353C115.492 72.0845 95.1563 109.063 61 130.817Z" fill="#FFCD71"/>
    <path d="M24.3804 53.8358C24.3804 33.4293 41.0714 16.9212 61.5461 17.2188C81.3245 17.5062 97.4257 33.6869 97.6206 53.4663C97.7234 63.9042 93.4592 73.3469 86.5431 80.0793C84.8682 81.7097 82.5247 82.4562 80.215 82.0973C74.1183 81.1504 67.6709 80.6424 61.0015 80.6424C54.369 80.6424 47.9562 81.1445 41.8894 82.0815C39.5354 82.445 37.1327 81.7117 35.4279 80.0485C28.612 73.3979 24.3804 64.1111 24.3804 53.8358Z" fill="#FFD993"/>
    <path d="M61.0013 69.5312C70.9795 69.5312 80.0255 73.5221 86.6305 79.9943C80.0255 86.4669 70.9792 90.4577 61.0013 90.4577C51.0231 90.4577 41.9771 86.4669 35.3721 79.9946C41.9771 73.5221 51.0231 69.5312 61.0013 69.5312Z" fill="#FFCD71"/>
    <path d="M29.1963 67.1538H27.1455V36.7715H29.1963V67.1538Z" fill="#2587FF"/>
    <path d="M33.9234 82.7747C32.0627 83.0929 30.1394 83.2596 28.1709 83.2596C26.2024 83.2596 24.2788 83.0929 22.4185 82.7747L25.5591 67.6991C25.2904 67.3215 25.1325 66.8595 25.1325 66.3608V64.758C25.1325 63.4807 26.1679 62.4453 27.4452 62.4453H28.8963C30.1736 62.4453 31.209 63.4807 31.209 64.758V66.3608C31.209 66.8595 31.0511 67.3215 30.7824 67.6991L33.9234 82.7747Z" fill="#1479F4"/>
    <path d="M31.674 65.5304C31.674 67.4651 30.1055 69.0334 28.171 69.0334C26.2362 69.0334 24.668 67.4648 24.668 65.5304C24.668 63.5959 26.2365 62.0273 28.171 62.0273C30.1058 62.0273 31.674 63.5956 31.674 65.5304Z" fill="#529CF7"/>
    <path d="M81.2468 72.2278C81.0358 73.24 80.3251 74.075 79.3604 74.4462C73.7805 76.5934 67.6012 77.7866 61.0999 77.7866C54.5986 77.7866 48.4193 76.5934 42.8394 74.4462C41.8747 74.075 41.1637 73.2397 40.953 72.2278L34.5156 41.3281H87.6845L81.2468 72.2278Z" fill="#1479F4"/>
    <path d="M57.4508 77.6606C52.2846 77.3018 47.3647 76.1879 42.839 74.4462C41.8742 74.075 41.1632 73.2397 40.9525 72.2278L34.5151 41.3281H52.9004C52.6968 43.7776 52.5925 46.2605 52.5925 48.7719C52.5925 58.9903 54.3181 68.7427 57.4508 77.6606Z" fill="#2587FF"/>
    <path d="M99.135 38.3631L64.5864 52.6675C62.3537 53.5919 59.8453 53.5919 57.6129 52.6675L23.0643 38.3631C22.1889 38.0007 22.1889 36.7605 23.0643 36.3981L57.6129 22.0936C59.8456 21.1693 62.354 21.1693 64.5864 22.0936L99.135 36.3981C100.01 36.7605 100.01 38.0007 99.135 38.3631Z" fill="#529CF7"/>
    <path d="M99.1352 38.363L78.499 46.9072C61.6844 45.1315 49.2505 38.8186 49.2505 31.3034C49.2505 28.5105 50.9679 25.8835 53.9893 23.5939L57.613 22.0936C59.8457 21.1693 62.3541 21.1693 64.5865 22.0936L99.1352 36.3981C100.011 36.7605 100.011 38.0006 99.1352 38.363Z" fill="#6AADFF"/>
    <path d="M93.4478 33.1833L90.6153 34.5019C90.5286 34.5424 90.4533 34.6033 90.3956 34.6795L88.5098 37.1703C88.2432 37.5225 87.698 37.4642 87.5113 37.064L86.1927 34.2315C86.1523 34.1448 86.0913 34.0695 86.0151 34.0118L83.5243 32.126C83.1722 31.8594 83.2305 31.3142 83.6307 31.1275L86.4631 29.8089C86.5498 29.7685 86.6251 29.7075 86.6828 29.6313L88.5687 27.1405C88.8353 26.7884 89.3805 26.8467 89.5671 27.2469L90.8858 30.0793C90.9262 30.166 90.9871 30.2413 91.0633 30.299L93.5541 32.1849C93.9063 32.4515 93.8483 32.9967 93.4478 33.1833Z" fill="#FFE7C0"/>
    <path d="M89.1953 6.72269L94.3534 5.21185C94.7978 5.08177 95.2106 5.49427 95.0805 5.939L93.5697 11.097C93.538 11.2045 93.538 11.3188 93.5697 11.4263L95.0805 16.5843C95.2106 17.0287 94.7981 17.4415 94.3534 17.3115L89.1953 15.8006C89.0878 15.769 88.9736 15.769 88.8661 15.8006L83.708 17.3115C83.2636 17.4415 82.8508 17.029 82.9809 16.5843L84.4917 11.4263C84.5231 11.3188 84.5231 11.2045 84.4917 11.097L82.9809 5.939C82.8508 5.49457 83.2633 5.08177 83.708 5.21185L88.8661 6.72269C88.9736 6.75404 89.0878 6.75404 89.1953 6.72269ZM50.4827 82.8061L48.5969 85.2969C48.5392 85.3731 48.4636 85.434 48.3772 85.4744L45.5447 86.7931C45.1445 86.9794 45.0862 87.5249 45.4384 87.7915L47.9292 89.6774C48.0054 89.7351 48.0663 89.8107 48.1067 89.8971L49.4254 92.7295C49.6117 93.1297 50.1572 93.188 50.4238 92.8359L52.3097 90.345C52.3674 90.2689 52.443 90.2079 52.5294 90.1675L55.3618 88.8489C55.762 88.6625 55.8203 88.117 55.4682 87.8504L52.9773 85.9646C52.9012 85.9069 52.8402 85.8313 52.7998 85.7449L51.4812 82.9124C51.2945 82.5119 50.7493 82.4539 50.4827 82.8061Z" fill="white"/>
</svg>
