<svg width="452" height="449" viewBox="0 0 452 449" fill="none" xmlns="http://www.w3.org/2000/svg">
    <path d="M413.923 219.014C400.168 139.881 281.064 110.429 184.454 127.258C87.8443 144.088 49.9771 201.051 63.7323 280.184C77.4875 359.316 131.861 402.686 229.927 398.64C360.035 393.138 427.678 297.985 413.923 219.014Z"
          fill="#E6F3FB"/>
    <path d="M306.502 399.159H172.187C157.946 399.159 146.457 387.669 146.457 373.428V47.0259C146.457 32.7852 157.946 21.2956 172.187 21.2956H306.502C320.743 21.2956 332.233 32.7852 332.233 47.0259V373.428C332.233 387.669 320.743 399.159 306.502 399.159Z"
          fill="#1479F4"/>
    <path d="M323.494 50.4216V370.027C323.494 381.355 314.27 390.579 302.942 390.579H175.909C164.581 390.579 155.357 381.355 155.357 370.027V50.4216C155.357 39.0938 164.581 29.8698 175.909 29.8698H197.27C199.859 29.8698 201.801 31.9735 201.801 34.4009C201.801 39.2557 205.685 43.1395 210.539 43.1395H268.149C273.004 43.1395 276.888 39.2557 276.888 34.4009C276.888 31.8117 278.992 29.8698 281.419 29.8698H302.78C314.108 29.8698 323.494 39.0938 323.494 50.4216Z"
          fill="white"/>
    <path d="M146.456 121.788C145.647 121.788 145 121.141 145 120.332V47.0249C145 32.1369 157.137 20 172.025 20H306.34C321.228 20 333.365 32.1369 333.365 47.0249C333.365 47.834 332.718 48.4813 331.909 48.4813C331.1 48.4813 330.452 47.834 330.452 47.0249C330.452 33.5934 319.61 22.751 306.178 22.751H171.863C158.432 22.751 147.589 33.5934 147.589 47.0249V120.332C147.913 121.141 147.266 121.788 146.456 121.788Z"
          fill="#001466"/>
    <path d="M306.501 400.453H172.185C157.297 400.453 145.16 388.316 145.16 373.428C145.16 372.619 145.808 371.971 146.617 371.971C147.426 371.971 148.073 372.619 148.073 373.428C148.073 386.859 158.916 397.702 172.347 397.702H306.662C320.094 397.702 330.936 386.859 330.936 373.428V164.187C330.936 163.378 331.584 162.731 332.393 162.731C333.202 162.731 333.849 163.378 333.849 164.187V373.428C333.687 388.316 321.55 400.453 306.501 400.453Z"
          fill="#001466"/>
    <path d="M413.12 357.552H305.344C296.282 357.552 289 350.27 289 341.207V275.344C289 266.282 296.282 259 305.344 259H413.12C422.183 259 429.465 266.282 429.465 275.344V341.207C429.465 350.27 422.183 357.552 413.12 357.552Z"
          fill="white"/>
    <path d="M413.12 259H305.344C296.282 259 289 266.282 289 275.344V341.207C289 350.27 296.282 357.552 305.344 357.552H413.12C422.183 357.552 429.465 350.27 429.465 341.207V285.44"
          stroke="#001466" stroke-width="5" stroke-linecap="round"/>
    <path d="M48.3446 85.0009L156.12 85.0009C165.183 85.0009 172.465 92.2831 172.465 101.345L172.465 167.208C172.465 176.271 165.183 183.553 156.12 183.553L48.3446 183.553C39.2823 183.553 32.0002 176.271 32.0002 167.208L32.0002 101.345C32.0002 92.2831 39.2823 85.0009 48.3446 85.0009Z"
          fill="white"/>
    <path d="M48.3446 183.553L156.12 183.553C165.183 183.553 172.465 176.271 172.465 167.208L172.465 101.345C172.465 92.2831 165.183 85.0009 156.12 85.0009L48.3446 85.0009C39.2823 85.0009 32.0002 92.2831 32.0002 101.345L32.0002 157.113"
          stroke="#001466" stroke-width="5" stroke-linecap="round"/>
    <path d="M188.062 415.776H78.3444C69.2822 415.776 62 408.494 62 399.432V324.344C62 315.282 69.2822 308 78.3444 308H188.062C197.124 308 204.407 315.282 204.407 324.344V399.432C204.407 408.494 197.124 415.776 188.062 415.776Z"
          fill="white"/>
    <path d="M78.3444 415.776C69.2822 415.776 62 408.494 62 399.432V324.344C62 315.282 69.2822 308 78.3444 308H188.062C197.124 308 204.407 315.282 204.407 324.344V399.432C204.407 408.494 197.124 415.776 188.062 415.776H119.913"
          stroke="#001466" stroke-width="5" stroke-linecap="round" stroke-linejoin="round"/>
    <path d="M433.062 110.776H323.344C314.282 110.776 307 103.494 307 94.4315V19.3444C307 10.2822 314.282 3 323.344 3H433.062C442.124 3 449.407 10.2822 449.407 19.3444V94.4315C449.407 103.494 442.124 110.776 433.062 110.776Z"
          fill="white"/>
    <path d="M323.344 110.776C314.282 110.776 307 103.494 307 94.4315V19.3444C307 10.2822 314.282 3 323.344 3H433.062C442.124 3 449.407 10.2822 449.407 19.3444V94.4315C449.407 103.494 442.124 110.776 433.062 110.776H364.913"
          stroke="#001466" stroke-width="5" stroke-linecap="round" stroke-linejoin="round"/>
    <path d="M372.315 448.806C371.506 448.806 370.858 448.644 370.049 448.321L350.63 440.391C348.688 439.582 347.232 437.802 347.07 435.698C346.746 433.595 347.555 431.491 349.335 430.196L365.842 417.25C367.46 415.956 369.725 415.632 371.667 416.441C373.609 417.25 375.066 419.03 375.228 421.134L378.14 442.01C378.464 444.113 377.655 446.217 375.875 447.512C374.742 448.321 373.609 448.806 372.315 448.806ZM367.46 419.678L350.954 432.624C350.145 433.271 349.659 434.404 349.821 435.537C349.983 436.669 350.63 437.478 351.763 437.964L371.182 445.893C372.153 446.379 373.286 446.217 374.257 445.408C375.066 444.761 375.551 443.628 375.389 442.495L372.476 421.62C372.315 420.487 371.667 419.678 370.535 419.192C369.402 418.869 368.269 419.03 367.46 419.678Z"
          fill="#FF7757"/>
    <path d="M43.2863 300.573C33.2531 300.573 25 292.319 25 282.286C25 272.253 33.2531 264 43.2863 264C53.3195 264 61.5726 272.253 61.5726 282.286C61.5726 292.481 53.3195 300.573 43.2863 300.573ZM43.2863 266.913C34.7095 266.913 27.751 273.871 27.751 282.448C27.751 291.025 34.7095 297.983 43.2863 297.983C51.863 297.983 58.8216 291.025 58.8216 282.448C58.6597 273.871 51.863 266.913 43.2863 266.913Z"
          fill="#FC3DB6"/>
    <path d="M17.0931 132.089L10.4582 133.707L8.83996 127.072C8.67814 126.263 7.86901 125.778 7.05988 126.101C6.25075 126.263 5.76528 127.072 6.08893 127.881L7.70719 134.516L1.07233 136.135C0.263201 136.296 -0.222273 137.106 0.101378 137.915C0.263204 138.724 1.07233 139.209 1.88146 138.886L8.51631 137.267L10.1346 143.902C10.2964 144.711 11.1055 145.197 11.9147 144.873C12.7238 144.711 13.2093 143.902 12.8856 143.093L11.2673 136.458L17.9022 134.84C18.7113 134.678 19.1968 133.869 18.8732 133.06C18.7113 132.413 17.9022 131.927 17.0931 132.089Z"
          fill="#FC3DB6"/>
    <path d="M433.239 179.208C431.944 179.208 430.65 179.855 429.84 180.988L426.118 186.652C425.471 187.623 424.662 187.623 424.015 187.461C423.367 187.299 422.72 186.652 422.72 185.519L423.206 178.723C423.367 177.266 422.558 175.81 421.426 175.001L415.762 171.279C414.791 170.631 414.791 169.822 414.952 169.175C415.114 168.528 415.762 167.88 416.894 167.88L423.691 168.366C425.148 168.528 426.604 167.719 427.413 166.586L431.135 160.922C431.782 159.951 432.591 159.951 433.239 160.113C433.886 160.275 434.533 160.922 434.533 162.055L434.048 168.851C433.886 170.308 434.695 171.764 435.828 172.573L441.492 176.295C442.463 176.943 442.463 177.752 442.301 178.561C442.139 179.208 441.492 179.855 440.359 179.855L433.562 179.37C433.562 179.208 433.401 179.208 433.239 179.208Z"
          fill="#FDB870"/>
    <path d="M424.662 188.272C425.471 188.272 426.28 187.948 426.928 186.977L430.65 181.314C431.297 180.343 432.268 179.857 433.401 180.019L440.197 180.504C441.816 180.666 442.787 179.534 443.11 178.563C443.434 177.592 443.272 176.135 441.977 175.326L436.314 171.604C435.343 170.957 434.857 169.986 435.019 168.853L435.504 162.056C435.666 160.438 434.533 159.467 433.562 159.143C432.592 158.82 431.135 158.982 430.326 160.276L426.604 165.94C425.957 166.911 424.824 167.397 423.853 167.235L417.056 166.749C415.6 166.587 414.467 167.558 414.143 168.691C413.82 169.662 413.982 171.119 415.276 171.928L420.94 175.65C421.911 176.297 422.396 177.268 422.235 178.401L421.749 185.197C421.587 186.816 422.72 187.787 423.691 188.11C424.015 188.272 424.338 188.272 424.662 188.272ZM433.239 178.239C431.621 178.239 430.002 179.048 429.193 180.504L425.471 186.168C425.148 186.654 424.662 186.654 424.338 186.492C424.015 186.33 423.691 186.168 423.691 185.521L424.177 178.724C424.338 176.944 423.529 175.164 421.911 174.193L416.247 170.471C415.762 170.148 415.762 169.662 415.923 169.338C415.923 169.177 416.247 168.691 416.894 168.691L423.691 169.177C425.471 169.338 427.251 168.529 428.222 166.911L431.944 161.247C432.268 160.762 432.753 160.762 433.077 160.924C433.401 161.085 433.724 161.247 433.724 161.895L433.239 168.691C433.077 170.471 433.886 172.251 435.504 173.222L441.168 176.944C441.654 177.268 441.654 177.753 441.492 178.077C441.492 178.239 441.168 178.724 440.521 178.724L433.724 178.239C433.562 178.239 433.401 178.239 433.239 178.239Z"
          fill="#001466"/>
    <path d="M219.666 207.597C229.467 207.597 236.477 202.206 236.456 194.749C236.477 189.315 233.026 185.438 226.612 184.628V184.287C231.491 183.413 234.858 179.962 234.837 175.061C234.858 168.179 228.828 162.767 219.794 162.767C210.845 162.767 204.112 168.009 203.984 175.551H212.827C212.933 172.227 215.98 170.075 219.751 170.075C223.48 170.075 225.973 172.334 225.952 175.615C225.973 179.045 223.054 181.368 218.857 181.368H214.787V188.143H218.857C223.8 188.143 226.889 190.615 226.868 194.131C226.889 197.604 223.906 199.99 219.688 199.99C215.618 199.99 212.571 197.859 212.401 194.663H203.111C203.26 202.291 210.078 207.597 219.666 207.597ZM259.025 207.597C268.741 207.597 275.346 201.268 275.325 192.447C275.346 184.095 269.508 178.087 261.646 178.087C257.811 178.087 254.508 179.685 252.974 181.837H252.718L253.848 170.906H272.917V163.364H246.241L244.174 186.375L252.377 187.845C253.72 186.034 256.319 184.905 258.897 184.905C263.287 184.926 266.44 188.101 266.44 192.682C266.44 197.22 263.35 200.352 259.025 200.352C255.36 200.352 252.399 198.051 252.186 194.663H243.237C243.407 202.206 249.991 207.597 259.025 207.597Z"
          fill="#1479F4"/>
    <path d="M207.662 227.435C207.125 223.557 204.142 221.307 200.273 221.307C195.713 221.307 192.278 224.631 192.278 230.273C192.278 235.906 195.67 239.239 200.273 239.239C204.423 239.239 207.176 236.554 207.662 233.222L204.474 233.205C204.074 235.25 202.403 236.401 200.315 236.401C197.486 236.401 195.457 234.278 195.457 230.273C195.457 226.335 197.469 224.145 200.324 224.145C202.446 224.145 204.108 225.347 204.474 227.435H207.662ZM216.131 239.256C219.967 239.256 222.404 236.554 222.404 232.506C222.404 228.449 219.967 225.739 216.131 225.739C212.296 225.739 209.859 228.449 209.859 232.506C209.859 236.554 212.296 239.256 216.131 239.256ZM216.148 236.784C214.026 236.784 212.987 234.892 212.987 232.497C212.987 230.102 214.026 228.185 216.148 228.185C218.237 228.185 219.276 230.102 219.276 232.497C219.276 234.892 218.237 236.784 216.148 236.784ZM233.366 233.494C233.366 235.489 231.943 236.477 230.58 236.477C229.097 236.477 228.108 235.429 228.108 233.767V225.909H225.023V234.244C225.023 237.389 226.812 239.17 229.386 239.17C231.347 239.17 232.727 238.139 233.324 236.673H233.46V239H236.452V225.909H233.366V233.494ZM239.624 239H242.71V231.304C242.71 229.642 243.962 228.466 245.658 228.466C246.178 228.466 246.826 228.56 247.09 228.645V225.807C246.809 225.756 246.323 225.722 245.982 225.722C244.482 225.722 243.229 226.574 242.752 228.091H242.616V225.909H239.624V239ZM259.487 229.369C259.06 227.153 257.288 225.739 254.219 225.739C251.066 225.739 248.918 227.29 248.927 229.71C248.918 231.619 250.094 232.881 252.609 233.401L254.842 233.869C256.043 234.134 256.606 234.619 256.606 235.361C256.606 236.256 255.634 236.929 254.168 236.929C252.754 236.929 251.833 236.315 251.569 235.139L248.56 235.429C248.944 237.832 250.964 239.256 254.177 239.256C257.45 239.256 259.759 237.56 259.768 235.08C259.759 233.213 258.558 232.071 256.086 231.534L253.853 231.057C252.523 230.759 251.995 230.298 252.004 229.54C251.995 228.653 252.975 228.04 254.262 228.04C255.685 228.04 256.435 228.815 256.674 229.676L259.487 229.369ZM268.107 239.256C271.158 239.256 273.255 237.764 273.8 235.489L270.92 235.165C270.502 236.273 269.479 236.852 268.15 236.852C266.156 236.852 264.835 235.54 264.809 233.298H273.928V232.352C273.928 227.759 271.167 225.739 267.945 225.739C264.195 225.739 261.749 228.491 261.749 232.531C261.749 236.639 264.161 239.256 268.107 239.256ZM264.817 231.219C264.911 229.548 266.147 228.142 267.988 228.142C269.761 228.142 270.954 229.438 270.971 231.219H264.817ZM286.885 229.369C286.459 227.153 284.686 225.739 281.618 225.739C278.464 225.739 276.317 227.29 276.325 229.71C276.317 231.619 277.493 232.881 280.007 233.401L282.24 233.869C283.442 234.134 284.004 234.619 284.004 235.361C284.004 236.256 283.033 236.929 281.567 236.929C280.152 236.929 279.232 236.315 278.967 235.139L275.959 235.429C276.342 237.832 278.362 239.256 281.575 239.256C284.848 239.256 287.158 237.56 287.166 235.08C287.158 233.213 285.956 232.071 283.484 231.534L281.251 231.057C279.922 230.759 279.393 230.298 279.402 229.54C279.393 228.653 280.374 228.04 281.661 228.04C283.084 228.04 283.834 228.815 284.072 229.676L286.885 229.369Z"
          fill="#333333"/>
    <path d="M81.0142 107.909H75.233L68.0312 112.469V117.923L74.6932 113.747H74.8636V137H81.0142V107.909ZM98.4538 107.511C91.9482 107.483 87.5589 111.744 87.5874 117.597C87.6016 123.023 91.3658 126.957 96.522 126.957C99.718 126.957 102.559 125.409 103.852 122.852H104.05C104.036 128.619 102.033 132.128 98.2408 132.128C96.0107 132.128 94.4055 130.906 93.9368 128.79H87.8714C88.4396 133.69 92.4169 137.398 98.2408 137.398C105.442 137.398 110.087 131.574 110.073 121.702C110.059 111.162 104.434 107.54 98.4538 107.511ZM98.4964 112.341C101.323 112.341 103.411 114.642 103.44 117.412C103.454 120.196 101.252 122.497 98.4396 122.497C95.5987 122.497 93.5675 120.281 93.5533 117.426C93.5249 114.585 95.6413 112.341 98.4964 112.341ZM124.96 137.398C131.437 137.398 135.84 133.179 135.826 127.298C135.84 121.73 131.948 117.724 126.707 117.724C124.15 117.724 121.948 118.79 120.925 120.224H120.755L121.508 112.938H134.221V107.909H116.437L115.059 123.25L120.528 124.23C121.423 123.023 123.156 122.27 124.874 122.27C127.8 122.284 129.903 124.401 129.903 127.455C129.903 130.48 127.843 132.568 124.96 132.568C122.516 132.568 120.542 131.034 120.4 128.776H114.434C114.548 133.804 118.937 137.398 124.96 137.398Z"
          fill="#2DCA8C"/>
    <path d="M81.6364 150.131H85.233V160H87.3239V150.131H90.9205V148.364H81.6364V150.131ZM95.2173 160.17C97.2514 160.17 98.6491 159.176 99.0128 157.659L97.0923 157.443C96.8139 158.182 96.1321 158.568 95.2457 158.568C93.9162 158.568 93.0355 157.693 93.0185 156.199H99.098V155.568C99.098 152.506 97.2571 151.159 95.1094 151.159C92.6094 151.159 90.9787 152.994 90.9787 155.688C90.9787 158.426 92.5866 160.17 95.2173 160.17ZM93.0241 154.812C93.0866 153.699 93.9105 152.761 95.1378 152.761C96.3196 152.761 97.1151 153.625 97.1264 154.812H93.0241ZM107.736 153.58C107.452 152.102 106.27 151.159 104.224 151.159C102.122 151.159 100.69 152.193 100.696 153.807C100.69 155.08 101.474 155.92 103.151 156.267L104.639 156.58C105.44 156.756 105.815 157.08 105.815 157.574C105.815 158.17 105.168 158.619 104.19 158.619C103.247 158.619 102.634 158.21 102.457 157.426L100.452 157.619C100.707 159.222 102.054 160.17 104.196 160.17C106.378 160.17 107.918 159.04 107.923 157.386C107.918 156.142 107.116 155.381 105.469 155.023L103.98 154.705C103.094 154.506 102.741 154.199 102.747 153.693C102.741 153.102 103.395 152.693 104.253 152.693C105.202 152.693 105.702 153.21 105.861 153.784L107.736 153.58ZM113.977 151.273H112.256V149.182H110.199V151.273H108.96V152.864H110.199V157.716C110.188 159.358 111.381 160.165 112.926 160.119C113.511 160.102 113.915 159.989 114.136 159.915L113.79 158.307C113.676 158.335 113.443 158.386 113.188 158.386C112.67 158.386 112.256 158.205 112.256 157.375V152.864H113.977V151.273ZM122.47 153.58C122.186 152.102 121.004 151.159 118.959 151.159C116.857 151.159 115.425 152.193 115.43 153.807C115.425 155.08 116.209 155.92 117.885 156.267L119.374 156.58C120.175 156.756 120.55 157.08 120.55 157.574C120.55 158.17 119.902 158.619 118.925 158.619C117.982 158.619 117.368 158.21 117.192 157.426L115.186 157.619C115.442 159.222 116.788 160.17 118.93 160.17C121.112 160.17 122.652 159.04 122.658 157.386C122.652 156.142 121.851 155.381 120.203 155.023L118.714 154.705C117.828 154.506 117.476 154.199 117.482 153.693C117.476 153.102 118.129 152.693 118.987 152.693C119.936 152.693 120.436 153.21 120.595 153.784L122.47 153.58Z"
          fill="#333333"/>
    <path d="M352.455 60.3977C358.989 60.3977 363.662 56.804 363.648 51.8324C363.662 48.2102 361.361 45.625 357.085 45.0852V44.858C360.338 44.2756 362.582 41.9744 362.568 38.7074C362.582 34.1193 358.562 30.5114 352.54 30.5114C346.574 30.5114 342.085 34.0057 342 39.0341H347.895C347.966 36.8182 349.997 35.3835 352.511 35.3835C354.997 35.3835 356.659 36.8892 356.645 39.0767C356.659 41.3636 354.713 42.9119 351.915 42.9119H349.202V47.429H351.915C355.21 47.429 357.27 49.0767 357.256 51.4205C357.27 53.7358 355.281 55.3267 352.469 55.3267C349.756 55.3267 347.724 53.9062 347.611 51.7756H341.418C341.517 56.8608 346.062 60.3977 352.455 60.3977ZM378.594 30.5114C372.089 30.483 367.7 34.7443 367.728 40.5966C367.742 46.0227 371.506 49.9574 376.663 49.9574C379.859 49.9574 382.7 48.4091 383.992 45.8523H384.191C384.177 51.6193 382.174 55.1278 378.381 55.1278C376.151 55.1278 374.546 53.9062 374.077 51.7898H368.012C368.58 56.6903 372.558 60.3977 378.381 60.3977C385.583 60.3977 390.228 54.5739 390.214 44.7017C390.2 34.1619 384.575 30.5398 378.594 30.5114ZM378.637 35.3409C381.464 35.3409 383.552 37.642 383.58 40.4119C383.594 43.196 381.393 45.4972 378.58 45.4972C375.739 45.4972 373.708 43.2812 373.694 40.4261C373.665 37.5852 375.782 35.3409 378.637 35.3409ZM405.881 60.6392C413.197 60.6392 417.614 55.071 417.629 45.483C417.643 35.9659 413.168 30.5114 405.881 30.5114C398.58 30.5114 394.148 35.9517 394.134 45.483C394.106 55.0426 398.552 60.625 405.881 60.6392ZM405.881 55.5398C402.543 55.5398 400.384 52.1875 400.398 45.483C400.413 38.8778 402.558 35.554 405.881 35.554C409.191 35.554 411.35 38.8778 411.35 45.483C411.364 52.1875 409.205 55.5398 405.881 55.5398Z"
          fill="#FF715B"/>
    <path d="M331.56 311.398C338.094 311.398 342.767 307.804 342.753 302.832C342.767 299.21 340.466 296.625 336.191 296.085V295.858C339.444 295.276 341.688 292.974 341.674 289.707C341.688 285.119 337.668 281.511 331.645 281.511C325.679 281.511 321.191 285.006 321.105 290.034H327C327.071 287.818 329.103 286.384 331.617 286.384C334.103 286.384 335.765 287.889 335.75 290.077C335.765 292.364 333.819 293.912 331.02 293.912H328.307V298.429H331.02C334.316 298.429 336.375 300.077 336.361 302.42C336.375 304.736 334.387 306.327 331.574 306.327C328.861 306.327 326.83 304.906 326.716 302.776H320.523C320.623 307.861 325.168 311.398 331.56 311.398ZM347.174 311H367.913V305.972H355.697V305.773L359.944 301.611C365.924 296.156 367.529 293.429 367.529 290.119C367.529 285.077 363.41 281.511 357.174 281.511C351.066 281.511 346.876 285.162 346.89 290.872H352.728C352.714 288.088 354.475 286.384 357.132 286.384C359.689 286.384 361.592 287.974 361.592 290.531C361.592 292.847 360.172 294.438 357.529 296.98L347.174 306.568V311ZM383.776 311.639C391.091 311.639 395.509 306.071 395.523 296.483C395.537 286.966 391.063 281.511 383.776 281.511C376.475 281.511 372.043 286.952 372.029 296.483C372 306.043 376.446 311.625 383.776 311.639ZM383.776 306.54C380.438 306.54 378.279 303.188 378.293 296.483C378.307 289.878 380.452 286.554 383.776 286.554C387.086 286.554 389.245 289.878 389.245 296.483C389.259 303.188 387.1 306.54 383.776 306.54Z"
          fill="#FFBE3D"/>
    <path d="M94.603 365.398C101.137 365.398 105.81 361.804 105.796 356.832C105.81 353.21 103.509 350.625 99.2337 350.085V349.858C102.487 349.276 104.731 346.974 104.717 343.707C104.731 339.119 100.711 335.511 94.6882 335.511C88.7223 335.511 84.2337 339.006 84.1484 344.034H90.0433C90.1143 341.818 92.1456 340.384 94.6598 340.384C97.1456 340.384 98.8075 341.889 98.7933 344.077C98.8075 346.364 96.8615 347.912 94.0632 347.912H91.3501V352.429H94.0632C97.3587 352.429 99.4183 354.077 99.4041 356.42C99.4183 358.736 97.4297 360.327 94.6172 360.327C91.9041 360.327 89.8729 358.906 89.7592 356.776H83.5661C83.6655 361.861 88.2109 365.398 94.603 365.398ZM122.874 335.909H117.092L109.891 340.469V345.923L116.553 341.747H116.723V365H122.874V335.909ZM141.194 365.639C148.509 365.639 152.927 360.071 152.941 350.483C152.955 340.966 148.481 335.511 141.194 335.511C133.893 335.511 129.461 340.952 129.447 350.483C129.418 360.043 133.864 365.625 141.194 365.639ZM141.194 360.54C137.856 360.54 135.697 357.188 135.711 350.483C135.725 343.878 137.87 340.554 141.194 340.554C144.504 340.554 146.663 343.878 146.663 350.483C146.677 357.188 144.518 360.54 141.194 360.54ZM168.733 365.639C176.048 365.639 180.466 360.071 180.48 350.483C180.494 340.966 176.02 335.511 168.733 335.511C161.432 335.511 157 340.952 156.986 350.483C156.957 360.043 161.403 365.625 168.733 365.639ZM168.733 360.54C165.395 360.54 163.236 357.188 163.25 350.483C163.264 343.878 165.409 340.554 168.733 340.554C172.043 340.554 174.202 343.878 174.202 350.483C174.216 357.188 172.057 360.54 168.733 360.54Z"
          fill="#FF7757"/>
    <path d="M348.46 84H355.693V82.233H350.568V72.3636H348.46V84ZM361.295 84.1705C363.33 84.1705 364.727 83.1761 365.091 81.6591L363.17 81.4432C362.892 82.1818 362.21 82.5682 361.324 82.5682C359.994 82.5682 359.114 81.6932 359.097 80.1989H365.176V79.5682C365.176 76.5057 363.335 75.1591 361.188 75.1591C358.688 75.1591 357.057 76.9943 357.057 79.6875C357.057 82.4261 358.665 84.1705 361.295 84.1705ZM359.102 78.8125C359.165 77.6989 359.989 76.7614 361.216 76.7614C362.398 76.7614 363.193 77.625 363.205 78.8125H359.102ZM373.814 77.5795C373.53 76.1023 372.348 75.1591 370.303 75.1591C368.2 75.1591 366.768 76.1932 366.774 77.8068C366.768 79.0795 367.553 79.9205 369.229 80.267L370.717 80.5795C371.518 80.7557 371.893 81.0795 371.893 81.5739C371.893 82.1705 371.246 82.6193 370.268 82.6193C369.325 82.6193 368.712 82.2102 368.536 81.4261L366.53 81.6193C366.786 83.2216 368.132 84.1705 370.274 84.1705C372.456 84.1705 373.996 83.0398 374.001 81.3864C373.996 80.142 373.195 79.3807 371.547 79.0227L370.058 78.7045C369.172 78.5057 368.82 78.1989 368.825 77.6932C368.82 77.1023 369.473 76.6932 370.331 76.6932C371.28 76.6932 371.78 77.2102 371.939 77.7841L373.814 77.5795ZM382.595 77.5795C382.311 76.1023 381.129 75.1591 379.084 75.1591C376.982 75.1591 375.55 76.1932 375.555 77.8068C375.55 79.0795 376.334 79.9205 378.01 80.267L379.499 80.5795C380.3 80.7557 380.675 81.0795 380.675 81.5739C380.675 82.1705 380.027 82.6193 379.05 82.6193C378.107 82.6193 377.493 82.2102 377.317 81.4261L375.311 81.6193C375.567 83.2216 376.913 84.1705 379.055 84.1705C381.237 84.1705 382.777 83.0398 382.783 81.3864C382.777 80.142 381.976 79.3807 380.328 79.0227L378.839 78.7045C377.953 78.5057 377.601 78.1989 377.607 77.6932C377.601 77.1023 378.254 76.6932 379.112 76.6932C380.061 76.6932 380.561 77.2102 380.72 77.7841L382.595 77.5795ZM388.286 84.1705C390.842 84.1705 392.467 82.3693 392.467 79.6705C392.467 76.9659 390.842 75.1591 388.286 75.1591C385.729 75.1591 384.104 76.9659 384.104 79.6705C384.104 82.3693 385.729 84.1705 388.286 84.1705ZM388.297 82.5227C386.882 82.5227 386.189 81.2614 386.189 79.6648C386.189 78.0682 386.882 76.7898 388.297 76.7898C389.689 76.7898 390.382 78.0682 390.382 79.6648C390.382 81.2614 389.689 82.5227 388.297 82.5227ZM396.27 78.8864C396.27 77.625 397.031 76.8977 398.116 76.8977C399.179 76.8977 399.815 77.5966 399.815 78.7614V84H401.872V78.4432C401.878 76.3523 400.685 75.1591 398.884 75.1591C397.577 75.1591 396.679 75.7841 396.281 76.7557H396.179V75.2727H394.213V84H396.27V78.8864ZM410.861 77.5795C410.577 76.1023 409.395 75.1591 407.349 75.1591C405.247 75.1591 403.815 76.1932 403.821 77.8068C403.815 79.0795 404.599 79.9205 406.276 80.267L407.764 80.5795C408.565 80.7557 408.94 81.0795 408.94 81.5739C408.94 82.1705 408.293 82.6193 407.315 82.6193C406.372 82.6193 405.759 82.2102 405.582 81.4261L403.577 81.6193C403.832 83.2216 405.179 84.1705 407.321 84.1705C409.503 84.1705 411.043 83.0398 411.048 81.3864C411.043 80.142 410.241 79.3807 408.594 79.0227L407.105 78.7045C406.219 78.5057 405.866 78.1989 405.872 77.6932C405.866 77.1023 406.52 76.6932 407.378 76.6932C408.327 76.6932 408.827 77.2102 408.986 77.7841L410.861 77.5795Z"
          fill="#333333"/>
    <path d="M333.79 323.364H331.478L335.575 335H338.177L342.279 323.364H339.961L336.938 332.523H336.819L333.79 323.364ZM343.721 335H345.778V326.273H343.721V335ZM344.755 325.034C345.408 325.034 345.942 324.534 345.942 323.92C345.942 323.301 345.408 322.801 344.755 322.801C344.096 322.801 343.562 323.301 343.562 323.92C343.562 324.534 344.096 325.034 344.755 325.034ZM351.131 335.153C352.631 335.153 353.308 334.261 353.631 333.625H353.756V335H355.779V323.364H353.717V327.716H353.631C353.319 327.085 352.677 326.159 351.137 326.159C349.12 326.159 347.535 327.739 347.535 330.648C347.535 333.523 349.075 335.153 351.131 335.153ZM351.705 333.466C350.347 333.466 349.631 332.273 349.631 330.636C349.631 329.011 350.336 327.847 351.705 327.847C353.029 327.847 353.756 328.943 353.756 330.636C353.756 332.33 353.018 333.466 351.705 333.466ZM361.835 335.17C363.869 335.17 365.266 334.176 365.63 332.659L363.71 332.443C363.431 333.182 362.749 333.568 361.863 333.568C360.533 333.568 359.653 332.693 359.636 331.199H365.715V330.568C365.715 327.506 363.874 326.159 361.727 326.159C359.227 326.159 357.596 327.994 357.596 330.688C357.596 333.426 359.204 335.17 361.835 335.17ZM359.641 329.812C359.704 328.699 360.528 327.761 361.755 327.761C362.937 327.761 363.732 328.625 363.744 329.812H359.641ZM371.262 335.17C373.819 335.17 375.444 333.369 375.444 330.67C375.444 327.966 373.819 326.159 371.262 326.159C368.705 326.159 367.08 327.966 367.08 330.67C367.08 333.369 368.705 335.17 371.262 335.17ZM371.273 333.523C369.859 333.523 369.165 332.261 369.165 330.665C369.165 329.068 369.859 327.79 371.273 327.79C372.665 327.79 373.359 329.068 373.359 330.665C373.359 332.261 372.665 333.523 371.273 333.523ZM384.087 328.58C383.803 327.102 382.621 326.159 380.576 326.159C378.474 326.159 377.042 327.193 377.048 328.807C377.042 330.08 377.826 330.92 379.502 331.267L380.991 331.58C381.792 331.756 382.167 332.08 382.167 332.574C382.167 333.17 381.519 333.619 380.542 333.619C379.599 333.619 378.985 333.21 378.809 332.426L376.803 332.619C377.059 334.222 378.406 335.17 380.548 335.17C382.729 335.17 384.269 334.04 384.275 332.386C384.269 331.142 383.468 330.381 381.82 330.023L380.332 329.705C379.445 329.506 379.093 329.199 379.099 328.693C379.093 328.102 379.746 327.693 380.604 327.693C381.553 327.693 382.053 328.21 382.212 328.784L384.087 328.58Z"
          fill="#333333"/>
    <path d="M96.4915 389H104.105V387.233H98.5994V384.057H103.668V382.29H98.5994V379.131H104.06V377.364H96.4915V389ZM107.801 380.273H105.619L108.21 384.636L105.551 389H107.733L109.562 385.858L111.409 389H113.574L110.898 384.636L113.528 380.273H111.352L109.562 383.494L107.801 380.273ZM118.655 389.17C120.689 389.17 122.087 388.176 122.45 386.659L120.53 386.443C120.251 387.182 119.57 387.568 118.683 387.568C117.354 387.568 116.473 386.693 116.456 385.199H122.536V384.568C122.536 381.506 120.695 380.159 118.547 380.159C116.047 380.159 114.416 381.994 114.416 384.688C114.416 387.426 116.024 389.17 118.655 389.17ZM116.462 383.812C116.524 382.699 117.348 381.761 118.575 381.761C119.757 381.761 120.553 382.625 120.564 383.812H116.462ZM124.276 389H126.332V383.869C126.332 382.761 127.168 381.977 128.298 381.977C128.645 381.977 129.077 382.04 129.253 382.097V380.205C129.065 380.17 128.741 380.148 128.514 380.148C127.514 380.148 126.679 380.716 126.361 381.727H126.27V380.273H124.276V389ZM134.067 389.17C136.26 389.17 137.658 387.869 137.805 386.017H135.839C135.663 386.955 134.987 387.494 134.084 387.494C132.8 387.494 131.97 386.42 131.97 384.636C131.97 382.875 132.817 381.818 134.084 381.818C135.072 381.818 135.68 382.455 135.839 383.295H137.805C137.663 381.403 136.186 380.159 134.055 380.159C131.499 380.159 129.885 382.006 129.885 384.67C129.885 387.312 131.459 389.17 134.067 389.17ZM139.494 389H141.551V380.273H139.494V389ZM140.528 379.034C141.182 379.034 141.716 378.534 141.716 377.92C141.716 377.301 141.182 376.801 140.528 376.801C139.869 376.801 139.335 377.301 139.335 377.92C139.335 378.534 139.869 379.034 140.528 379.034ZM150.564 382.58C150.28 381.102 149.098 380.159 147.053 380.159C144.95 380.159 143.518 381.193 143.524 382.807C143.518 384.08 144.303 384.92 145.979 385.267L147.467 385.58C148.268 385.756 148.643 386.08 148.643 386.574C148.643 387.17 147.996 387.619 147.018 387.619C146.075 387.619 145.462 387.21 145.286 386.426L143.28 386.619C143.536 388.222 144.882 389.17 147.024 389.17C149.206 389.17 150.746 388.04 150.751 386.386C150.746 385.142 149.945 384.381 148.297 384.023L146.808 383.705C145.922 383.506 145.57 383.199 145.575 382.693C145.57 382.102 146.223 381.693 147.081 381.693C148.03 381.693 148.53 382.21 148.689 382.784L150.564 382.58ZM156.311 389.17C158.345 389.17 159.743 388.176 160.107 386.659L158.186 386.443C157.908 387.182 157.226 387.568 156.339 387.568C155.01 387.568 154.129 386.693 154.112 385.199H160.192V384.568C160.192 381.506 158.351 380.159 156.203 380.159C153.703 380.159 152.072 381.994 152.072 384.688C152.072 387.426 153.68 389.17 156.311 389.17ZM154.118 383.812C154.18 382.699 155.004 381.761 156.232 381.761C157.413 381.761 158.209 382.625 158.22 383.812H154.118ZM168.83 382.58C168.545 381.102 167.364 380.159 165.318 380.159C163.216 380.159 161.784 381.193 161.79 382.807C161.784 384.08 162.568 384.92 164.244 385.267L165.733 385.58C166.534 385.756 166.909 386.08 166.909 386.574C166.909 387.17 166.261 387.619 165.284 387.619C164.341 387.619 163.727 387.21 163.551 386.426L161.545 386.619C161.801 388.222 163.148 389.17 165.29 389.17C167.472 389.17 169.011 388.04 169.017 386.386C169.011 385.142 168.21 384.381 166.562 384.023L165.074 383.705C164.188 383.506 163.835 383.199 163.841 382.693C163.835 382.102 164.489 381.693 165.347 381.693C166.295 381.693 166.795 382.21 166.955 382.784L168.83 382.58Z"
          fill="#333333"/>
</svg>
