<svg width="50" height="50" viewBox="0 0 50 50" fill="none" xmlns="http://www.w3.org/2000/svg">
    <path d="M42.6758 26.416H7.32422C3.28564 26.416 0 23.1304 0 19.0918V7.37305C0 3.33447 3.28564 0.0488281 7.32422 0.0488281H42.6758C46.7144 0.0488281 50 3.33447 50 7.37305V19.0918C50 23.1304 46.7144 26.416 42.6758 26.416Z" fill="#80AEFC"/>
    <path d="M42.6758 0.0488281H25V26.416H42.6758C46.7144 26.416 50 23.1304 50 19.0918V7.37305C50 3.33447 46.7144 0.0488281 42.6758 0.0488281Z" fill="#51A0FF"/>
    <path d="M11.3281 5.9082H7.42188C6.61289 5.9082 5.95703 6.56406 5.95703 7.37305V19.0918C5.95703 19.9008 6.61289 20.5566 7.42188 20.5566C8.23086 20.5566 8.88672 19.9008 8.88672 19.0918V16.6504H11.3281C14.2897 16.6504 16.6992 14.2409 16.6992 11.2793C16.6992 8.31768 14.2897 5.9082 11.3281 5.9082ZM11.3281 13.7207H8.88672V8.83789H11.3281C12.6743 8.83789 13.7695 9.93311 13.7695 11.2793C13.7695 12.6255 12.6743 13.7207 11.3281 13.7207Z" fill="#E3F5FF"/>
    <path d="M25 5.9082C22.0384 5.9082 19.6289 8.31768 19.6289 11.2793V19.1895C19.6289 19.9984 20.2848 20.6543 21.0938 20.6543C21.9027 20.6543 22.5586 19.9984 22.5586 19.1895V15.6738H27.4414V19.0918C27.4414 19.9008 28.0973 20.5566 28.9062 20.5566C29.7152 20.5566 30.3711 19.9008 30.3711 19.0918V11.2793C30.3711 8.31768 27.9616 5.9082 25 5.9082ZM27.4414 12.7441H22.5586V11.2793C22.5586 9.93311 23.6538 8.83789 25 8.83789C26.3462 8.83789 27.4414 9.93311 27.4414 11.2793V12.7441Z" fill="#E3F5FF"/>
    <path d="M43.3052 6.10253C42.6029 5.70126 41.708 5.94521 41.3065 6.64755L38.6722 11.2578L36.0377 6.64755C35.6363 5.94511 34.7413 5.70097 34.039 6.10253C33.3367 6.5039 33.0927 7.39863 33.494 8.10117L37.2073 14.5992V19.0931C37.2073 19.902 37.8632 20.5579 38.6722 20.5579C39.4811 20.5579 40.137 19.902 40.137 19.0931V14.5992L43.8502 8.10107C44.2516 7.39863 44.0076 6.5039 43.3052 6.10253Z" fill="#C6E1F5"/>
    <path d="M27.4414 11.2793V12.7441H25V15.6738H27.4414V19.0918C27.4414 19.9008 28.0973 20.5566 28.9062 20.5566C29.7152 20.5566 30.3711 19.9008 30.3711 19.0918V11.2793C30.3711 8.31768 27.9616 5.9082 25 5.9082V8.83789C26.3462 8.83789 27.4414 9.93311 27.4414 11.2793Z" fill="#C6E1F5"/>
    <path d="M23.291 21.9971V37.201H16.6992V21.9971C16.6992 20.1768 18.1748 18.7012 19.9951 18.7012C21.8154 18.7012 23.291 20.1768 23.291 21.9971Z" fill="#F0F7FF"/>
    <path d="M29.8828 31.7627V37.1582H23.291V31.7627C23.291 29.9424 24.7666 28.4668 26.5869 28.4668C28.4072 28.4668 29.8828 29.9424 29.8828 31.7627Z" fill="#F0F7FF"/>
    <path d="M16.6992 35.303V36.8749L13.2991 33.3984C12.0058 32.0759 9.91202 31.9728 8.49503 33.1618C7.0672 34.36 6.81359 36.4604 7.91534 37.9639L13.9193 46.1576C15.6668 48.5423 18.4462 49.9514 21.4026 49.9514H33.7891C38.9128 49.9514 43.0664 45.7978 43.0664 40.6741V35.303H16.6992Z" fill="#F0F7FF"/>
    <path d="M29.8828 35.3027V49.9512H33.7891C38.9128 49.9512 43.0664 45.7976 43.0664 40.6738V35.3027H29.8828Z" fill="#DFE7F4"/>
    <path d="M36.4746 31.7627V37.1575H29.8828V31.7627C29.8828 29.9424 31.3584 28.4668 33.1787 28.4668C34.999 28.4668 36.4746 29.9424 36.4746 31.7627Z" fill="#DFE7F4"/>
    <path d="M43.0664 31.7627V37.1575H36.4746V31.7627C36.4746 29.9424 37.9502 28.4668 39.7705 28.4668C41.5908 28.4668 43.0664 29.9424 43.0664 31.7627Z" fill="#DFE7F4"/>
</svg>
