<svg width="20" height="20" viewBox="0 0 20 20" fill="none" xmlns="http://www.w3.org/2000/svg">
    <g clip-path="url(#clip0)">
        <path d="M10.9091 14.0907C11.1602 14.0907 11.3637 13.8872 11.3637 13.6362C11.3637 13.3851 11.1602 13.1816 10.9091 13.1816C10.6581 13.1816 10.4546 13.3851 10.4546 13.6362C10.4546 13.8872 10.6581 14.0907 10.9091 14.0907Z" fill="#4F4F4F"/>
        <path d="M3.18207 16.8173C3.4331 16.8173 3.6366 16.6138 3.6366 16.3627C3.6366 16.1117 3.4331 15.9082 3.18207 15.9082C2.93104 15.9082 2.72754 16.1117 2.72754 16.3627C2.72754 16.6138 2.93104 16.8173 3.18207 16.8173Z" fill="#4F4F4F"/>
        <path d="M18.6366 1.81836H3.18199C2.40926 1.81836 1.81836 2.40926 1.81836 3.18199V7.72746C1.81836 8.0002 2.0002 8.18199 2.27289 8.18199C2.54559 8.18199 2.72742 8.00016 2.72742 7.72746V3.18203C2.72742 2.9093 2.90926 2.7275 3.18196 2.7275H18.6365C18.9092 2.7275 19.091 2.90934 19.091 3.18203V14.0911C19.091 14.3639 18.9092 14.5457 18.6365 14.5457H7.72743C7.4547 14.5457 7.2729 14.7275 7.2729 15.0002C7.2729 15.2729 7.45474 15.4547 7.72743 15.4547H8.63653V16.8184C8.63653 17.0911 8.4547 17.2729 8.182 17.2729H7.72747C7.45474 17.2729 7.27294 17.4547 7.27294 17.7274C7.27294 18.0001 7.45477 18.182 7.72747 18.182H14.0911C14.3638 18.182 14.5456 18.0001 14.5456 17.7274C14.5456 17.4547 14.3638 17.2729 14.0911 17.2729H13.6366C13.3638 17.2729 13.182 17.0911 13.182 16.8184V15.4547H18.6366C19.4093 15.4547 20.0002 14.8638 20.0002 14.0911V3.18203C20.0002 2.4093 19.4093 1.81836 18.6366 1.81836ZM9.4547 17.2729C9.50017 17.1366 9.5456 17.0002 9.5456 16.8184V15.4548H12.2729V16.8184C12.2729 17.0002 12.3183 17.1366 12.3638 17.2729H9.4547Z" fill="#4F4F4F"/>
        <path d="M17.7275 11.8184H7.72748C7.45475 11.8184 7.27295 12.0002 7.27295 12.2729C7.27295 12.5456 7.45478 12.7274 7.72748 12.7274H17.7275C18.0002 12.7274 18.182 12.5456 18.182 12.2729C18.182 12.0002 18.0002 11.8184 17.7275 11.8184Z" fill="#4F4F4F"/>
        <path d="M5 9.0918H1.36363C0.590898 9.0918 0 9.68273 0 10.4554V16.8191C0 17.5918 0.590898 18.1827 1.36363 18.1827H5C5.77273 18.1827 6.36363 17.5918 6.36363 16.8191V10.4554C6.36363 9.68273 5.77273 9.0918 5 9.0918ZM5.45453 16.8191C5.45453 17.0918 5.2727 17.2736 5 17.2736H1.36363C1.0909 17.2736 0.909102 17.0918 0.909102 16.8191V10.4554C0.909102 10.1827 1.09094 10.0009 1.36363 10.0009H5C5.27273 10.0009 5.45453 10.1827 5.45453 10.4554V16.8191Z" fill="#4F4F4F"/>
    </g>
    <defs>
        <clipPath id="clip0">
            <rect width="20" height="20" fill="white"/>
        </clipPath>
    </defs>
</svg>
