<svg width="20" height="20" viewBox="0 0 20 20" fill="none" xmlns="http://www.w3.org/2000/svg">
    <path d="M18.5959 2.63441H17.2873V1.18422C17.2873 0.53125 16.7561 0 16.103 0H3.89695C3.24395 0 2.7127 0.53125 2.7127 1.18422V2.63441H1.77031C0.79418 2.63441 0 3.42859 0 4.40477V15.4369C0 16.4131 0.79418 17.2072 1.77031 17.2072H7.25609C7.32297 17.805 7.28141 18.5202 7.14066 19.2187H4.93992C4.72422 19.2187 4.5493 19.3936 4.5493 19.6093C4.5493 19.825 4.72422 20 4.93992 20H15.0603C15.276 20 15.4509 19.825 15.4509 19.6093C15.4509 19.3936 15.276 19.2187 15.0603 19.2187H12.8379C12.6846 18.5136 12.6352 17.7982 12.7005 17.2072H18.2296C19.2058 17.2072 20 16.4131 20 15.4369V4.03879C20 3.26441 19.3701 2.63441 18.5959 2.63441ZM3.49395 1.18422C3.49395 0.962031 3.67473 0.78125 3.89695 0.78125H16.1031C16.3253 0.78125 16.5061 0.962031 16.5061 1.18422V10.3612C16.5061 10.5834 16.3253 10.7641 16.1031 10.7641H3.89695C3.67477 10.7641 3.49398 10.5834 3.49398 10.3612V1.18422H3.49395ZM1.77031 3.41566H2.7127V10.3612C2.7127 11.0142 3.24395 11.5454 3.89691 11.5454H16.103C16.7561 11.5454 17.2873 11.0141 17.2873 10.3612V3.41566H18.5959C18.9393 3.41566 19.2187 3.69516 19.2187 4.03875V13.6815H0.78125V4.40477C0.78125 3.85938 1.22492 3.41566 1.77031 3.41566ZM12.0405 19.2187H7.93574C8.06176 18.5246 8.09969 17.8187 8.04172 17.2072H11.915C11.8589 17.8137 11.9038 18.5196 12.0405 19.2187ZM18.2296 16.426H1.77031C1.22492 16.426 0.78125 15.9823 0.78125 15.4369V14.4628H19.2188V15.4369C19.2188 15.9823 18.775 16.426 18.2296 16.426ZM5.0418 3.9673C4.90141 3.80352 4.92039 3.55691 5.08418 3.41648C5.24793 3.27605 5.49453 3.29508 5.635 3.45887L6.0334 3.92367L7.34047 2.47645C7.48508 2.31625 7.73215 2.30375 7.89215 2.44836C8.0523 2.59293 8.06484 2.83992 7.92023 3.00004L6.31562 4.77672C6.24156 4.85883 6.13617 4.90555 6.02574 4.90555C6.02406 4.90555 6.02238 4.90555 6.02066 4.90551C5.90844 4.90406 5.80219 4.85437 5.72914 4.76914L5.0418 3.9673ZM9.31992 2.90437C9.31992 2.68867 9.49484 2.51375 9.71055 2.51375H14.6616C14.8773 2.51375 15.0522 2.68867 15.0522 2.90437C15.0522 3.12008 14.8773 3.295 14.6616 3.295H9.71055C9.4948 3.295 9.31992 3.12008 9.31992 2.90437ZM9.31992 4.44246C9.31992 4.22676 9.49484 4.05184 9.71055 4.05184H13.7529C13.9686 4.05184 14.1436 4.22676 14.1436 4.44246C14.1436 4.65816 13.9686 4.83309 13.7529 4.83309H9.71055C9.4948 4.83309 9.31992 4.65816 9.31992 4.44246ZM5.0418 8.25945C4.90141 8.09566 4.92039 7.84906 5.08418 7.70863C5.24793 7.5682 5.49453 7.58719 5.635 7.75102L6.0334 8.21578L7.34047 6.76855C7.48508 6.60844 7.73211 6.5959 7.89219 6.74051C8.0523 6.88508 8.06484 7.13207 7.92023 7.29223L6.31562 9.06887C6.24156 9.15094 6.13617 9.19766 6.02574 9.19766C6.02406 9.19766 6.02238 9.19766 6.02066 9.19762C5.90844 9.19617 5.80223 9.14648 5.72914 9.06125L5.0418 8.25945ZM9.31992 7.19648C9.31992 6.98078 9.49484 6.80586 9.71055 6.80586H14.6616C14.8773 6.80586 15.0522 6.98078 15.0522 7.19648C15.0522 7.41219 14.8773 7.58711 14.6616 7.58711H9.71055C9.4948 7.58711 9.31992 7.41223 9.31992 7.19648ZM9.31992 8.73457C9.31992 8.51887 9.49484 8.34395 9.71055 8.34395H13.7529C13.9686 8.34395 14.1436 8.51887 14.1436 8.73457C14.1436 8.95027 13.9686 9.1252 13.7529 9.1252H9.71055C9.4948 9.1252 9.31992 8.95031 9.31992 8.73457Z" fill="#4F4F4F"/>
</svg>
