<svg width="60" height="60" viewBox="0 0 60 60" fill="none" xmlns="http://www.w3.org/2000/svg">
    <path d="M30 60C46.5685 60 60 46.5685 60 30C60 13.4315 46.5685 0 30 0C13.4315 0 0 13.4315 0 30C0 46.5685 13.4315 60 30 60Z" fill="#E5F1FF"/>
    <path d="M38.2687 18.3102C38.2687 13.728 34.5407 10 29.9584 10C25.3762 10 21.6482 13.728 21.6482 18.3102C21.6482 22.8925 25.3762 26.6205 29.9584 26.6205C34.5407 26.6205 38.2687 22.8925 38.2687 18.3102ZM29.9584 26.6205C21.7104 26.6205 15 33.3309 15 41.5789V43.1366C15 43.6091 15.201 44.0592 15.5529 44.3744C19.6014 48.0021 24.7175 50 29.9584 50C35.1996 50 40.3156 48.0021 44.364 44.3744C44.7159 44.0592 44.9169 43.609 44.9169 43.1366V41.5789C44.9169 33.3309 38.2065 26.6205 29.9584 26.6205Z" fill="#1479F4"/>
    <path d="M29.9584 26.6211C21.7104 26.6211 15 33.3315 15 41.5795V43.1372C15 43.6097 15.201 44.0598 15.5529 44.375C19.6014 48.0027 24.7175 50.0006 29.9584 50.0006C35.1996 50.0006 40.3156 48.0027 44.364 44.375C44.7159 44.0598 44.9169 43.6096 44.9169 43.1372V41.5795C44.9169 33.3315 38.2065 26.6211 29.9584 26.6211Z" fill="#BEE3FF"/>
</svg>
