<svg width="20" height="18" viewBox="0 0 20 18" fill="none" xmlns="http://www.w3.org/2000/svg">
    <path d="M19.6094 14.3711H18.7943V3.41895C18.7943 2.91656 18.3856 2.50785 17.8832 2.50785H15.3966V1.74957C15.3966 1.27055 15.0069 0.880859 14.5279 0.880859H6.10984C5.63082 0.880859 5.24113 1.27059 5.24113 1.74957V2.50781H2.40219C1.8998 2.50781 1.49109 2.91652 1.49109 3.41891V14.3711H0.390625C0.174883 14.3711 0 14.546 0 14.7617C0 16.0628 1.05852 17.1213 2.35961 17.1213H17.6404C18.9415 17.1213 20 16.0628 20 14.7617C20 14.546 19.8251 14.3711 19.6094 14.3711ZM6.02238 1.74957C6.02238 1.70215 6.06242 1.66211 6.10984 1.66211H14.5279C14.5753 1.66211 14.6154 1.70215 14.6154 1.74957V7.83035C14.6154 7.87777 14.5753 7.91781 14.5279 7.91781H9.58562C9.49074 7.91781 9.39914 7.95234 9.32785 8.01492L8.12215 9.07387V8.3084C8.12215 8.09269 7.94727 7.91777 7.73152 7.91777H6.10984C6.06246 7.91777 6.02238 7.87773 6.02238 7.83031V1.74957ZM2.27234 3.41895C2.27234 3.34855 2.3318 3.2891 2.40219 3.2891H5.24113V7.83039C5.24113 8.30941 5.63082 8.6991 6.10984 8.6991H7.3409V9.93691C7.3409 10.0903 7.4307 10.2295 7.57043 10.2928C7.62203 10.3161 7.67691 10.3275 7.73145 10.3275C7.82457 10.3275 7.9166 10.2943 7.9893 10.2304L9.73281 8.6991H14.5279C15.0069 8.6991 15.3966 8.30937 15.3966 7.83039V3.28906H17.8832C17.9536 3.28906 18.0131 3.34852 18.0131 3.41891V14.3711H2.27234V3.41895ZM17.6404 16.3401H2.35961C1.62406 16.3401 1.00441 15.8344 0.830156 15.1523H19.1698C18.9956 15.8344 18.3759 16.3401 17.6404 16.3401ZM9.00332 6.4218C9.06375 6.45672 9.13117 6.47414 9.19863 6.47414C9.26609 6.47414 9.33352 6.45672 9.39395 6.4218L11.6344 5.12828C11.7552 5.05852 11.8297 4.92953 11.8297 4.79C11.8297 4.65047 11.7552 4.52148 11.6344 4.45172L9.39395 3.1582C9.27309 3.0884 9.12418 3.0884 9.00332 3.1582C8.88246 3.22797 8.80801 3.35695 8.80801 3.49648V6.08355C8.80801 6.22305 8.88246 6.35203 9.00332 6.4218ZM9.58926 4.17301L10.6578 4.78996L9.58926 5.40691V4.17301ZM14.3419 12.082C14.3419 12.2977 14.167 12.4727 13.9513 12.4727H6.3341C6.11836 12.4727 5.94348 12.2977 5.94348 12.082C5.94348 11.8663 6.11836 11.6914 6.3341 11.6914H13.9513C14.167 11.6914 14.3419 11.8663 14.3419 12.082Z" fill="#4F4F4F"/>
</svg>
