<svg width="20" height="18" viewBox="0 0 20 18" fill="none" xmlns="http://www.w3.org/2000/svg">
    <path d="M18.0469 0.5625H11.763C11.5473 0.5625 11.3724 0.737383 11.3724 0.953125C11.3724 1.16887 11.5473 1.34375 11.763 1.34375H18.0469C18.693 1.34375 19.2188 1.86945 19.2188 2.51562V11.9688H0.78125V2.51562C0.78125 1.86945 1.30695 1.34375 1.95312 1.34375H8.24742C8.46313 1.34375 8.63805 1.16887 8.63805 0.953125C8.63805 0.737383 8.46313 0.5625 8.24742 0.5625H1.95312C0.876172 0.5625 0 1.43867 0 2.51562V15.4844C0 16.5613 0.876172 17.4375 1.95312 17.4375H18.0469C19.1238 17.4375 20 16.5613 20 15.4844V2.51562C20 1.43867 19.1238 0.5625 18.0469 0.5625ZM18.0469 16.6562H1.95312C1.30695 16.6562 0.78125 16.1305 0.78125 15.4844V12.75H19.2188V15.4844C19.2188 16.1305 18.693 16.6562 18.0469 16.6562Z" fill="#4F4F4F"/>
    <path d="M3.90332 13.5312C3.25715 13.5312 2.73145 14.057 2.73145 14.7031C2.73145 15.3493 3.25715 15.875 3.90332 15.875C4.54949 15.875 5.0752 15.3493 5.0752 14.7031C5.0752 14.057 4.54949 13.5312 3.90332 13.5312ZM3.90332 15.0938C3.68793 15.0938 3.5127 14.9185 3.5127 14.7031C3.5127 14.4877 3.68793 14.3125 3.90332 14.3125C4.11871 14.3125 4.29395 14.4877 4.29395 14.7031C4.29395 14.9185 4.11867 15.0938 3.90332 15.0938Z" fill="#4F4F4F"/>
    <path d="M16.8779 14.3125H7.14795C6.93221 14.3125 6.75732 14.4874 6.75732 14.7031C6.75732 14.9189 6.93221 15.0938 7.14795 15.0938H16.8779C17.0936 15.0938 17.2685 14.9189 17.2685 14.7031C17.2685 14.4874 17.0936 14.3125 16.8779 14.3125Z" fill="#4F4F4F"/>
    <path d="M8.00342 5.4713V7.84029C8.00342 8.24306 8.21166 8.60373 8.56045 8.80509C8.73486 8.9058 8.92619 8.95615 9.11752 8.95615C9.3088 8.95615 9.50013 8.9058 9.67455 8.80509L11.7261 7.6206C12.0749 7.41923 12.2831 7.05853 12.2831 6.65579C12.2831 6.25306 12.0749 5.89236 11.7261 5.69099L9.67455 4.50649C9.3258 4.30513 8.90935 4.30513 8.56049 4.50649C8.21166 4.70786 8.00342 5.06857 8.00342 5.4713ZM8.78467 5.4713C8.78467 5.29786 8.90107 5.21196 8.95107 5.18306C8.9815 5.16552 9.04236 5.13728 9.1192 5.13728C9.16877 5.13728 9.22502 5.14907 9.28392 5.18306L11.3355 6.36755C11.4857 6.45427 11.5019 6.59802 11.5019 6.65579C11.5019 6.71357 11.4857 6.85732 11.3355 6.94404L9.28392 8.12853C9.13369 8.21517 9.00115 8.1574 8.95111 8.12853C8.90111 8.09962 8.7847 8.01373 8.7847 7.84029V5.4713H8.78467Z" fill="#4F4F4F"/>
    <path d="M10.0049 1.34375C10.1076 1.34375 10.2084 1.30195 10.2811 1.2293C10.3537 1.15664 10.3955 1.05586 10.3955 0.953125C10.3955 0.850391 10.3537 0.749609 10.2811 0.676953C10.2084 0.604297 10.1076 0.5625 10.0049 0.5625C9.90215 0.5625 9.80137 0.604297 9.72832 0.676953C9.65566 0.749609 9.61426 0.850391 9.61426 0.953125C9.61426 1.05586 9.65566 1.15664 9.72832 1.2293C9.80137 1.30195 9.90215 1.34375 10.0049 1.34375Z" fill="#4F4F4F"/>
</svg>
